<svg width="500" height="500" viewBox="0 0 500 500" fill="none" xmlns="http://www.w3.org/2000/svg">
<path d="M190.48 41.27H43.51V305.29H190.48V41.27Z" fill="#EBEBEB"/>
<path d="M183.09 48.92H49.38V297.42H183.09V48.92Z" fill="#FAFAFA"/>
<path d="M196.7 307.67L190.48 305.29V36.79H196.7V307.67Z" fill="#E0E0E0"/>
<path d="M82.16 209.44L116.89 177.16C121.29 173.07 127.04 168.67 132.7 170.68C135.42 171.68 137.47 173.98 140.14 175.09C145.47 177.31 151.56 174.09 155.66 170.03C159.76 165.97 162.99 160.88 167.96 157.93C172.93 154.98 180.64 155.35 183.09 160.58V195.71L132.63 217.31L82.16 209.44Z" fill="#F5F5F5"/>
<path d="M49.38 189.25C62.18 184.04 74.95 188.47 84.11 198.81C86.04 200.99 87.79 203.5 90.44 204.71C94.03 206.33 98.17 205.12 102.08 204.71C107.451 204.173 112.865 205.129 117.727 207.475C122.588 209.82 126.708 213.462 129.63 218L86.9 239L49.38 238.72V189.25Z" fill="#E0E0E0"/>
<path d="M183.09 189.42C174.66 185.35 167.25 190.28 159.47 195.49C151.69 200.7 144.47 207.38 135.35 209.49C129.26 210.89 122.73 210.11 116.83 212.21C104.83 216.48 97.89 231.72 85.17 232.45C78.26 232.85 72.07 228.66 65.91 225.52C59.75 222.38 54.91 219.4 49.38 223.6V297.43H183.09V189.42Z" fill="#EBEBEB"/>
<path d="M185.99 120.41H49.38V123.06H185.99V120.41Z" fill="#E0E0E0"/>
<path d="M185.99 179.59H49.38V182.24H185.99V179.59Z" fill="#E0E0E0"/>
<path d="M185.99 238.76H49.38V241.41H185.99V238.76Z" fill="#E0E0E0"/>
<path d="M112.86 121.73L112.86 304.47H119.62L119.62 121.73H112.86Z" fill="#E0E0E0"/>
<path d="M78.19 48.92H75.13V121.73H78.19V48.92Z" fill="#E0E0E0"/>
<path d="M104.59 48.92H101.53V121.73H104.59V48.92Z" fill="#E0E0E0"/>
<path d="M130.98 48.92H127.92V121.73H130.98V48.92Z" fill="#E0E0E0"/>
<path d="M157.38 48.92H154.32V121.73H157.38V48.92Z" fill="#E0E0E0"/>
<path d="M43.51 36.79H37.29V306.92H43.51V36.79Z" fill="#E0E0E0"/>
<path d="M196.69 34.06H37.29V41.26H196.69V34.06Z" fill="#E0E0E0"/>
<path d="M200.9 308.55H32.88V315.26H200.9V308.55Z" fill="#E0E0E0"/>
<path d="M190.48 305.29L200.9 308.55H32.88L43.51 305.29H190.48Z" fill="#EBEBEB"/>
<path d="M192.21 382.73C193.457 381.962 194.803 381.367 196.21 380.96L197.01 376.96L203.74 376.79L204.74 380.74C206.168 381.077 207.544 381.605 208.83 382.31L212.22 380.06L217.09 384.7L215 388.2C215.767 389.448 216.362 390.793 216.77 392.2L220.77 393L220.93 399.72L216.99 400.72C216.651 402.147 216.123 403.523 215.42 404.81L217.67 408.19L213 413.07L209.54 411C208.293 411.77 206.947 412.369 205.54 412.78L204.74 416.78L198.02 416.95L197 413C195.573 412.655 194.198 412.124 192.91 411.42L189.53 413.67L184.67 409L186.75 405.51C185.983 404.261 185.385 402.916 184.97 401.51L180.97 400.71L180.8 393.98L184.74 392.98C185.085 391.553 185.616 390.178 186.32 388.89L184.07 385.5L188.7 380.63L192.19 382.71L192.21 382.73ZM195.86 391.67C194.879 392.704 194.226 394.006 193.984 395.411C193.742 396.816 193.923 398.261 194.502 399.563C195.081 400.866 196.034 401.967 197.239 402.729C198.444 403.49 199.848 403.877 201.274 403.841C202.699 403.804 204.081 403.347 205.246 402.525C206.411 401.703 207.306 400.554 207.818 399.224C208.331 397.894 208.437 396.441 208.124 395.05C207.811 393.66 207.093 392.393 206.06 391.41C204.671 390.096 202.818 389.385 200.906 389.434C198.995 389.483 197.18 390.287 195.86 391.67Z" fill="#E0E0E0"/>
<path d="M195.86 391.67C196.238 391.202 196.691 390.8 197.2 390.48C198.585 389.561 200.247 389.155 201.9 389.33C203.127 389.452 204.304 389.883 205.319 390.583C206.335 391.282 207.158 392.227 207.71 393.33C208.366 394.641 208.62 396.116 208.44 397.57C208.251 399.139 207.56 400.605 206.47 401.75C205.379 402.894 203.948 403.655 202.39 403.92C201.658 404.06 200.908 404.08 200.17 403.98C199.479 403.891 198.805 403.699 198.17 403.41C196.969 402.871 195.933 402.022 195.17 400.95C194.357 399.807 193.891 398.454 193.828 397.053C193.764 395.652 194.105 394.262 194.81 393.05C195.103 392.527 195.482 392.057 195.93 391.66C195.571 392.132 195.237 392.623 194.93 393.13C194.168 394.542 193.9 396.168 194.17 397.75C194.344 398.836 194.776 399.865 195.43 400.75C196.167 401.769 197.166 402.57 198.32 403.07C199.579 403.615 200.969 403.779 202.32 403.54C203.788 403.28 205.135 402.557 206.164 401.478C207.193 400.398 207.85 399.019 208.04 397.54C208.155 396.845 208.155 396.135 208.04 395.44C207.934 394.772 207.725 394.124 207.42 393.52C206.904 392.46 206.128 391.548 205.164 390.868C204.201 390.188 203.082 389.762 201.91 389.63C200.315 389.443 198.702 389.795 197.33 390.63C196.32 391.21 195.9 391.7 195.86 391.67Z" fill="#E0E0E0"/>
<path d="M192.21 382.73L191.99 382.62L191.32 382.24L188.69 380.71H188.77L184.16 385.6V385.47L186.43 388.85V388.91V388.97C185.731 390.251 185.207 391.62 184.87 393.04V393.12H184.79L180.85 394.12L181 394C181.06 396.12 181.12 398.36 181.18 400.72L181.05 400.57L185.05 401.36H185.15V401.46C185.555 402.866 186.147 404.211 186.91 405.46L186.97 405.55L186.91 405.65L184.84 409.14V408.91L189.72 413.54H189.48L192.86 411.29L192.96 411.22L193.07 411.28C194.329 411.971 195.674 412.493 197.07 412.83H197.19V412.95C197.5 414.18 197.84 415.53 198.19 416.89L197.98 416.74L204.71 416.57L204.51 416.73C204.76 415.47 205.04 414.11 205.31 412.73V412.6H205.43C206.835 412.196 208.18 411.607 209.43 410.85L209.54 410.79L209.65 410.85C210.82 411.55 211.98 412.25 213.14 412.93H212.88L217.52 408.06V408.31L215.27 404.93L215.2 404.83L215.26 404.72C215.952 403.46 216.477 402.116 216.82 400.72V400.6H216.93L220.88 399.6L220.73 399.79C220.67 397.497 220.617 395.257 220.57 393.07L220.72 393.25L216.72 392.45H216.61V392.34C216.203 390.935 215.611 389.59 214.85 388.34V388.25V388.15L216.94 384.67V384.88L212.08 380.23H212.27L208.89 382.47L208.81 382.52H208.73C207.472 381.821 206.127 381.293 204.73 380.95H204.65V380.87C204.29 379.44 203.97 378.14 203.65 376.92L203.77 377.02L197.04 377.15L197.13 377.08C196.8 378.67 196.53 379.97 196.31 381.08C195.252 381.385 194.224 381.787 193.24 382.28L192.52 382.67L192.28 382.79L192.51 382.64C192.66 382.54 192.89 382.4 193.21 382.22C194.185 381.695 195.21 381.27 196.27 380.95V381L197.04 377V376.93H197L203.72 376.73H203.82V376.82C204.13 378.04 204.46 379.33 204.82 380.76L204.72 380.66C206.164 381.002 207.556 381.533 208.86 382.24H208.7L212.08 379.98L212.18 379.91L212.28 380L217.16 384.62L217.26 384.72L217.19 384.84C216.51 385.97 215.82 387.13 215.11 388.33V388.14C215.88 389.39 216.485 390.735 216.91 392.14L216.77 392.01L220.77 392.81H220.92V393C220.98 395.19 221.03 397.43 221.09 399.72V399.88H220.93L216.99 400.88L217.14 400.73C216.798 402.175 216.263 403.568 215.55 404.87V404.66L217.8 408.05L217.89 408.18L217.78 408.3L213.14 413.17L213.03 413.29L212.89 413.21L209.4 411.13H209.61C208.343 411.907 206.978 412.509 205.55 412.92L205.7 412.77C205.42 414.14 205.15 415.49 204.9 416.77V416.93H204.74L198.01 417.09H197.85V416.94L196.85 413L197 413.14C195.556 412.791 194.164 412.253 192.86 411.54H193.06L189.68 413.79L189.55 413.88L189.44 413.77L184.57 409.13L184.46 409.03L184.54 408.9L186.63 405.41V405.6C185.854 404.333 185.252 402.967 184.84 401.54L184.97 401.66L180.97 400.86H180.85V400.73C180.85 398.37 180.75 396.12 180.7 394.01V393.89H180.81L184.76 392.89L184.66 392.99C185.008 391.555 185.546 390.173 186.26 388.88V389L184 385.58L183.95 385.51L184.01 385.45L188.68 380.6L191.25 382.18L191.91 382.59L192.21 382.73Z" fill="#E0E0E0"/>
<path d="M160.52 339.75C161.849 338.932 163.282 338.296 164.78 337.86L165.64 333.62L172.79 333.44L173.85 337.64C175.371 338.005 176.837 338.57 178.21 339.32L181.81 336.92L186.99 341.85L184.78 345.57C185.596 346.903 186.232 348.339 186.67 349.84L190.91 350.69L191.09 357.84L186.89 358.9C186.527 360.422 185.962 361.888 185.21 363.26L187.61 366.86L182.68 372L179 369.83C177.669 370.65 176.232 371.286 174.73 371.72L173.88 375.96L166.73 376.14L165.67 371.94C164.148 371.577 162.682 371.012 161.31 370.26L157.71 372.66L152.53 367.73L154.7 364C153.88 362.669 153.244 361.232 152.81 359.73L148.57 358.88L148.39 351.73L152.59 350.67C152.954 349.15 153.516 347.684 154.26 346.31L151.87 342.71L156.8 337.53L160.52 339.74V339.75ZM164.4 349.26C163.353 350.361 162.656 351.747 162.397 353.243C162.138 354.74 162.329 356.28 162.945 357.668C163.561 359.056 164.575 360.231 165.859 361.043C167.142 361.855 168.637 362.268 170.156 362.23C171.674 362.193 173.147 361.706 174.389 360.831C175.63 359.956 176.585 358.732 177.131 357.315C177.677 355.898 177.791 354.351 177.458 352.869C177.125 351.387 176.36 350.037 175.26 348.99C173.783 347.588 171.81 346.829 169.774 346.879C167.738 346.93 165.805 347.786 164.4 349.26Z" fill="#F5F5F5"/>
<path d="M164.4 349.26C164.802 348.763 165.281 348.334 165.82 347.99C167.298 347.023 169.063 346.592 170.82 346.77C172.511 346.948 174.099 347.671 175.345 348.828C176.591 349.986 177.428 351.516 177.73 353.19C177.875 353.972 177.896 354.772 177.79 355.56C177.583 357.228 176.846 358.786 175.686 360.003C174.526 361.22 173.006 362.033 171.35 362.32C170.571 362.466 169.774 362.483 168.99 362.37C168.233 362.285 167.494 362.083 166.8 361.77C165.518 361.194 164.411 360.29 163.59 359.15C162.884 358.154 162.422 357.007 162.24 355.8C161.978 354.048 162.331 352.26 163.24 350.74C163.55 350.183 163.952 349.682 164.43 349.26C164.069 349.765 163.735 350.289 163.43 350.83C162.618 352.334 162.33 354.064 162.61 355.75C162.803 356.9 163.262 357.989 163.95 358.93C164.734 360.005 165.785 360.857 167 361.4C167.635 361.693 168.308 361.895 169 362C169.746 362.097 170.502 362.073 171.24 361.93C172.804 361.655 174.238 360.887 175.333 359.736C176.427 358.586 177.124 357.115 177.32 355.54C177.424 354.799 177.407 354.046 177.27 353.31C177.152 352.614 176.93 351.94 176.61 351.31C176.025 350.094 175.123 349.058 174 348.31C172.797 347.519 171.393 347.088 169.954 347.064C168.514 347.041 167.098 347.428 165.87 348.18C164.88 348.78 164.44 349.3 164.4 349.26Z" fill="#F5F5F5"/>
<path d="M160.52 339.75C160.435 339.721 160.354 339.681 160.28 339.63L159.57 339.22L156.77 337.6H156.85C155.6 338.94 153.95 340.7 151.95 342.82V342.68L154.36 346.27V346.33V346.4C153.617 347.762 153.062 349.219 152.71 350.73V350.81H152.62L148.43 351.88L148.55 351.72C148.61 353.98 148.673 356.367 148.74 358.88L148.6 358.71L152.85 359.56H152.95V359.66C153.38 361.144 154.009 362.564 154.82 363.88L154.88 363.98L154.82 364.08L152.61 367.8V367.55L157.8 372.48H157.55L161.15 370.08L161.25 370.01L161.36 370.07C162.715 370.814 164.165 371.369 165.67 371.72H165.79V371.85C166.13 373.16 166.49 374.6 166.86 376.04L166.64 375.88L173.8 375.7L173.59 375.88C173.86 374.54 174.15 373.09 174.44 371.63V371.5H174.57C176.05 371.066 177.466 370.437 178.78 369.63L178.89 369.56L179 369.63L182.72 371.84H182.45L187.38 366.66V366.93L184.98 363.33L184.91 363.22L184.97 363.1C185.715 361.748 186.273 360.302 186.63 358.8V358.68H186.76L190.95 357.62L190.8 357.83C190.74 355.38 190.68 353 190.63 350.67L190.79 350.87L186.55 350.01H186.43V349.9C185.998 348.416 185.369 346.997 184.56 345.68L184.5 345.58L184.56 345.48C185.33 344.21 186.06 342.97 186.79 341.77V342L181.69 337H181.9L178.29 339.39L178.21 339.44L178.13 339.39C176.773 338.647 175.324 338.085 173.82 337.72H173.73V337.63C173.35 336.11 173.01 334.73 172.73 333.43L172.86 333.53L165.7 333.68L165.79 333.6L164.91 337.84C163.785 338.162 162.694 338.591 161.65 339.12L160.88 339.53C160.803 339.585 160.719 339.629 160.63 339.66L160.87 339.5C161.03 339.4 161.27 339.24 161.62 339.06C162.653 338.495 163.742 338.04 164.87 337.7V337.76C165.09 336.6 165.36 335.21 165.69 333.51V333.43H165.77L172.93 333.22H173.03V333.32L174 337.6L173.9 337.5C175.433 337.857 176.91 338.422 178.29 339.18H178.13L181.72 336.78L181.84 336.7L181.93 336.8C183.58 338.35 185.3 339.99 187.13 341.72L187.23 341.82L187.16 341.95C186.44 343.15 185.71 344.39 184.95 345.67V345.47C185.778 346.815 186.423 348.265 186.87 349.78L186.72 349.64L190.96 350.49H191.12V350.65C191.18 352.98 191.24 355.36 191.31 357.81V358L191.15 358.05L186.95 359.11L187.11 358.95C186.745 360.49 186.173 361.973 185.41 363.36V363.14C186.21 364.33 187 365.53 187.81 366.74L187.91 366.88L187.79 367.01L182.85 372.19L182.73 372.32L182.58 372.23L178.85 370H179.07C177.724 370.825 176.275 371.467 174.76 371.91L174.91 371.74C174.62 373.2 174.33 374.64 174.06 375.98V376.15H173.89L166.73 376.32H166.56V376.15C166.19 374.7 165.83 373.27 165.5 371.95L165.66 372.11C164.122 371.74 162.639 371.168 161.25 370.41H161.47L157.86 372.8L157.73 372.89L157.61 372.78L152.43 367.84L152.32 367.73L152.4 367.6L154.62 363.88V364.08C153.799 362.734 153.16 361.284 152.72 359.77L152.86 359.89L148.61 359.03H148.48V358.89C148.42 356.38 148.37 353.98 148.32 351.73V351.61H148.44L152.64 350.61L152.54 350.71C152.909 349.181 153.481 347.708 154.24 346.33V346.46L151.85 342.85V342.78L151.91 342.71L156.91 337.56H156.96L159.7 339.23L160.4 339.67L160.52 339.75Z" fill="#F5F5F5"/>
<path d="M227.27 378L225.64 371.53C223.298 370.975 221.041 370.108 218.93 368.95L213.37 372.65L205.37 365.02L208.78 359.3C207.524 357.248 206.545 355.039 205.87 352.73L199.32 351.42L199 340.33L205.46 338.69C206.02 336.351 206.891 334.097 208.05 331.99L204.35 326.43L211.97 318.43L217.69 321.84C219.741 320.582 221.95 319.603 224.26 318.93L225.57 312.38L236.63 312.11L238.26 318.57C240.603 319.128 242.86 319.999 244.97 321.16L250.53 317.45L258.53 325.08L255.12 330.8C256.38 332.85 257.359 335.06 258.03 337.37L264.58 338.68L264.85 349.74L258.39 351.37C257.83 353.712 256.959 355.969 255.8 358.08L259.5 363.64L251.88 371.64L246.16 368.23C244.108 369.486 241.899 370.464 239.59 371.14L238.28 377.69L227.27 378ZM218.93 368.89C221.044 370.051 223.304 370.922 225.65 371.48L227.29 377.94L238.29 377.67L239.61 371.13C241.924 370.461 244.138 369.482 246.19 368.22L251.91 371.63L259.5 363.63L255.81 358.08C256.971 355.966 257.842 353.706 258.4 351.36L264.86 349.72L264.59 338.72L258.05 337.41C257.381 335.096 256.402 332.882 255.14 330.83L258.55 325.11L250.55 317.52L245 321.21C242.886 320.049 240.626 319.178 238.28 318.62L236.64 312.16L225.64 312.43L224.37 319C222.056 319.669 219.842 320.648 217.79 321.91L212 318.46L204.41 326.46L208.1 332.01C206.939 334.124 206.068 336.384 205.51 338.73L199.05 340.36L199.32 351.36L205.86 352.68C206.531 354.994 207.51 357.207 208.77 359.26L205.4 365L213.4 372.59L218.93 368.89ZM232.34 356.55C229.033 356.51 225.875 355.164 223.558 352.804C221.24 350.444 219.95 347.263 219.97 343.956C219.99 340.648 221.318 337.483 223.664 335.151C226.009 332.82 229.182 331.511 232.49 331.511C235.798 331.511 238.971 332.82 241.316 335.151C243.662 337.483 244.99 340.648 245.01 343.956C245.03 347.263 243.74 350.444 241.422 352.804C239.105 355.164 235.947 356.51 232.64 356.55H232.34ZM223.76 336.55C222.155 338.224 221.078 340.333 220.663 342.614C220.248 344.896 220.513 347.249 221.426 349.381C222.338 351.513 223.858 353.329 225.795 354.604C227.732 355.879 230.001 356.555 232.32 356.55H232.62C235.701 356.431 238.614 355.114 240.738 352.878C242.863 350.643 244.03 347.667 243.992 344.584C243.954 341.5 242.714 338.554 240.536 336.371C238.358 334.189 235.413 332.943 232.33 332.9H232.03C230.477 332.935 228.947 333.278 227.528 333.908C226.108 334.538 224.828 335.443 223.76 336.57V336.55Z" fill="#E0E0E0"/>
<path d="M223.76 336.53C224.379 335.748 225.122 335.072 225.96 334.53C228.235 333.03 230.96 332.365 233.67 332.65C235.689 332.851 237.624 333.562 239.294 334.714C240.965 335.867 242.315 337.424 243.22 339.24C243.757 340.283 244.132 341.403 244.33 342.56C244.556 343.761 244.586 344.99 244.42 346.2C244.104 348.775 242.968 351.181 241.18 353.061C239.392 354.941 237.046 356.196 234.49 356.64C232.124 357.045 229.691 356.749 227.49 355.79C225.489 354.915 223.761 353.516 222.49 351.74C221.152 349.859 220.384 347.633 220.28 345.327C220.175 343.021 220.738 340.734 221.9 338.74C222.385 337.885 223.006 337.114 223.74 336.46C223.81 336.51 223.03 337.24 222.13 338.87C220.879 341.193 220.439 343.868 220.88 346.47C221.196 348.377 221.987 350.174 223.178 351.695C224.37 353.217 225.925 354.415 227.7 355.18C229.792 356.089 232.106 356.357 234.35 355.95C236.763 355.525 238.977 354.338 240.666 352.564C242.356 350.79 243.433 348.521 243.74 346.09C243.897 344.943 243.874 343.779 243.67 342.64C243.502 341.545 243.165 340.482 242.67 339.49C241.822 337.758 240.555 336.266 238.983 335.15C237.411 334.034 235.584 333.329 233.67 333.1C231.052 332.786 228.404 333.36 226.15 334.73C224.51 335.78 223.82 336.59 223.76 336.53Z" fill="#EBEBEB"/>
<path d="M217.77 321.85C217.641 321.799 217.517 321.735 217.4 321.66L216.3 321.04L212 318.53H212.14L204.57 326.53V326.32C205.69 328 206.95 329.87 208.29 331.86L208.35 331.96V332.07C207.204 334.168 206.346 336.412 205.8 338.74V338.87H205.67L199.2 340.52L199.38 340.28C199.47 343.76 199.57 347.45 199.68 351.28L199.46 351.03L206.01 352.33H206.18L206.23 352.5C206.902 354.788 207.874 356.977 209.12 359.01L209.22 359.16L209.13 359.31C208.07 361.09 206.9 363.05 205.72 365.05L205.66 364.67L213.66 372.28H213.27L218.82 368.58L218.99 368.47L219.16 368.57C221.251 369.709 223.484 370.567 225.8 371.12H225.99L226.04 371.32C226.56 373.32 227.12 375.56 227.68 377.79L227.35 377.54L238.35 377.26L238.03 377.53C238.45 375.46 238.89 373.23 239.34 370.99V370.78L239.54 370.73C241.825 370.063 244.011 369.094 246.04 367.85L246.22 367.74L246.4 367.84L252.13 371.26L251.71 371.32L259.32 363.32V363.74L255.62 358.18L255.51 358.01L255.61 357.84C256.754 355.75 257.614 353.517 258.17 351.2L258.22 351.01L258.41 350.96L264.88 349.33L264.64 349.65C264.547 345.883 264.46 342.217 264.38 338.65L264.63 338.94L258.08 337.62H257.9L257.85 337.45C257.185 335.185 256.227 333.017 255 331L254.9 330.85L254.99 330.7L258.42 324.97L258.47 325.32L250.47 317.69H250.8L245.23 321.37L245.11 321.45L244.98 321.38C242.888 320.228 240.652 319.36 238.33 318.8H238.19V318.67C237.6 316.31 237.08 314.19 236.58 312.19L236.78 312.34L225.73 312.56L225.88 312.44C225.34 315.05 224.88 317.19 224.52 318.98V319H224.45C222.724 319.506 221.049 320.176 219.45 321L218.26 321.63C218.138 321.711 218.007 321.778 217.87 321.83C217.87 321.83 218 321.74 218.24 321.58C218.48 321.42 218.87 321.19 219.4 320.9C220.99 320.032 222.665 319.332 224.4 318.81L224.33 318.89C224.67 317.11 225.09 314.96 225.6 312.34V312.22H225.72L236.77 311.9H236.93V312.06L238.58 318.53L238.42 318.36C240.785 318.923 243.065 319.797 245.2 320.96H244.95L250.5 317.24L250.67 317.13L250.82 317.27L258.82 324.87L258.98 325.03L258.87 325.22L255.46 331V330.69C256.753 332.766 257.762 335.006 258.46 337.35L258.22 337.13L264.77 338.44L265.02 338.49V338.74C265.107 342.327 265.203 345.993 265.31 349.74V350L265.06 350.06L258.59 351.71L258.83 351.46C258.263 353.836 257.382 356.127 256.21 358.27V357.92L259.91 363.48L260.06 363.7L259.87 363.89L252.26 371.89L252.07 372.08L251.84 371.95L246.11 368.53H246.45C244.37 369.803 242.131 370.795 239.79 371.48L240.03 371.22C239.58 373.47 239.13 375.7 238.71 377.77V378.03H238.44L227.44 378.29H227L226.94 378.03C226.37 375.8 225.82 373.59 225.3 371.56L225.55 371.8C223.177 371.227 220.891 370.342 218.75 369.17H219.08L213.52 372.86L213.31 373L213.13 372.83L205.13 365.2L204.95 365.03L205.08 364.83L208.5 359.1V359.4C207.228 357.322 206.243 355.082 205.57 352.74L205.78 352.94L199.24 351.61H199.03V351.4C198.95 347.52 198.86 343.83 198.79 340.4V340.21L198.98 340.16L205.46 338.55L205.29 338.71C205.88 336.328 206.792 334.037 208 331.9V332.1L204.33 326.53L204.25 326.42L204.35 326.32L212.01 318.32L212.07 318.26H212.14L216.37 320.85L217.45 321.53C217.566 321.627 217.673 321.734 217.77 321.85Z" fill="#EBEBEB"/>
<path d="M451.49 267.47C450.357 268.164 449.136 268.702 447.86 269.07L447.14 272.68L441.06 272.83L440.16 269.27C438.869 268.958 437.625 268.478 436.46 267.84L433.4 269.84L429 265.64L430.88 262.49C430.186 261.357 429.648 260.136 429.28 258.86L425.67 258.14L425.52 252.06L429.09 251.16C429.398 249.869 429.875 248.625 430.51 247.46L428.51 244.4L432.71 240L435.86 241.88C436.993 241.186 438.214 240.648 439.49 240.28L440.21 236.67L446.29 236.52L447.19 240.09C448.481 240.396 449.725 240.874 450.89 241.51L453.95 239.51L458.35 243.71L456.47 246.86C457.164 247.993 457.702 249.214 458.07 250.49L461.68 251.21L461.83 257.29L458.26 258.19C457.954 259.481 457.476 260.725 456.84 261.89L458.84 264.95L454.64 269.35L451.49 267.47ZM448.19 259.39C449.079 258.456 449.67 257.279 449.89 256.008C450.109 254.738 449.947 253.43 449.424 252.252C448.901 251.073 448.04 250.076 446.951 249.387C445.861 248.698 444.591 248.347 443.302 248.379C442.013 248.411 440.763 248.825 439.709 249.568C438.655 250.311 437.845 251.349 437.381 252.552C436.918 253.755 436.821 255.069 437.104 256.327C437.387 257.585 438.036 258.731 438.97 259.62C439.59 260.21 440.321 260.673 441.12 260.981C441.919 261.289 442.771 261.437 443.628 261.415C444.484 261.394 445.327 261.204 446.11 260.856C446.893 260.509 447.6 260.011 448.19 259.39Z" fill="#E0E0E0"/>
<path d="M448.19 259.39C447.85 259.815 447.441 260.18 446.98 260.47C445.913 261.153 444.672 261.516 443.405 261.516C442.138 261.516 440.897 261.153 439.83 260.47C438.828 259.82 438.017 258.916 437.48 257.85C437.183 257.275 436.978 256.658 436.87 256.02C436.749 255.36 436.732 254.685 436.82 254.02C436.993 252.602 437.619 251.278 438.604 250.244C439.59 249.21 440.882 248.521 442.29 248.28C442.949 248.154 443.625 248.137 444.29 248.23C444.933 248.307 445.56 248.483 446.15 248.75C447.241 249.234 448.184 250 448.88 250.97C449.481 251.817 449.875 252.793 450.03 253.82C450.261 255.303 449.967 256.82 449.2 258.11C448.941 258.584 448.603 259.01 448.2 259.37C448.2 259.37 448.59 258.94 449.09 258.04C449.777 256.762 450.019 255.291 449.78 253.86C449.601 252.811 449.164 251.822 448.507 250.984C447.851 250.146 446.996 249.485 446.02 249.06C444.866 248.57 443.595 248.424 442.36 248.64C441.032 248.875 439.813 249.529 438.883 250.506C437.953 251.483 437.359 252.732 437.19 254.07C437.089 254.699 437.089 255.341 437.19 255.97C437.291 256.572 437.483 257.156 437.76 257.7C438.156 258.499 438.714 259.207 439.399 259.778C440.084 260.349 440.88 260.772 441.737 261.018C442.595 261.265 443.494 261.33 444.377 261.21C445.261 261.09 446.11 260.786 446.87 260.32C447.327 260.035 447.767 259.724 448.19 259.39Z" fill="#E0E0E0"/>
<path d="M451.49 267.47C451.56 267.495 451.628 267.529 451.69 267.57L452.3 267.92L454.67 269.3H454.6L458.77 264.87V265L456.71 262V261.94V261.89C457.339 260.73 457.813 259.493 458.12 258.21V258.14H458.19L461.76 257.23L461.66 257.36C461.6 255.45 461.55 253.42 461.49 251.28L461.61 251.42L458 250.71H457.91V250.62C457.536 249.362 456.998 248.158 456.31 247.04L456.26 246.95L456.31 246.87L458.19 243.71V243.92L453.78 239.73H453.99L450.94 241.73L450.85 241.79H450.75C449.6 241.163 448.373 240.689 447.1 240.38H446.99V240.27C446.71 239.15 446.4 237.94 446.09 236.71L446.27 236.85L440.19 237L440.37 236.85C440.14 237.99 439.9 239.22 439.65 240.45V240.56H439.54C438.28 240.92 437.075 241.452 435.96 242.14L435.86 242.2L435.77 242.14L432.61 240.26H432.84L428.65 244.66V244.43L430.65 247.49L430.71 247.58L430.66 247.68C430.029 248.828 429.555 250.056 429.25 251.33V251.44H429.14L425.58 252.33L425.71 252.16C425.757 254.227 425.803 256.253 425.85 258.24L425.72 258.07L429.32 258.8H429.42V258.9C429.784 260.159 430.315 261.363 431 262.48L431.05 262.57L431 262.65C430.35 263.73 429.73 264.78 429.11 265.8V265.61L433.5 269.81H433.32L436.39 267.81L436.46 267.76H436.53C437.682 268.395 438.913 268.875 440.19 269.19H440.26V269.27C440.58 270.56 440.87 271.73 441.15 272.83L441.04 272.75L447.12 272.62L447.04 272.69C447.34 271.25 447.58 270.08 447.78 269.09C448.735 268.813 449.662 268.448 450.55 268L451.2 267.65C451.269 267.605 451.343 267.568 451.42 267.54L451.22 267.68L450.58 268.05C449.7 268.531 448.772 268.917 447.81 269.2L447.11 272.8V272.87H447.04L440.96 273.05H441V272.97C440.72 271.86 440.42 270.7 440.09 269.41L440.18 269.49C438.857 269.171 437.585 268.67 436.4 268H436.54L433.48 270L433.39 270.06L433.31 269.98L428.89 265.8L428.8 265.71L428.87 265.6L430.74 262.45V262.61C430.038 261.468 429.493 260.237 429.12 258.95L429.24 259.07L425.64 258.35H425.5V258.21C425.45 256.21 425.4 254.21 425.34 252.14V252H425.48L429 251L428.87 251.13C429.185 249.823 429.669 248.562 430.31 247.38V247.57L428.31 244.57L428.23 244.44L428.33 244.34L432.52 239.93L432.62 239.82L432.75 239.9L435.91 241.78H435.72C436.862 241.079 438.093 240.534 439.38 240.16L439.25 240.3L439.98 236.7V236.55H440.13L446.2 236.4H446.35V236.54C446.66 237.77 446.96 238.99 447.24 240.1L447.11 239.97C448.417 240.281 449.675 240.769 450.85 241.42H450.67L453.73 239.42L453.85 239.34L453.95 239.44L458.35 243.64L458.44 243.73L458.37 243.84C457.72 244.94 457.07 246.02 456.49 246.99V246.83C457.188 247.973 457.729 249.204 458.1 250.49L457.98 250.39L461.59 251.12H461.7V251.24C461.7 253.37 461.79 255.4 461.83 257.32V257.42H461.73L458.16 258.31L458.25 258.22C457.935 259.518 457.451 260.768 456.81 261.94V261.83L458.81 264.89V264.96L458.75 265.01C457.04 266.8 455.62 268.27 454.54 269.39L452.29 268L451.69 267.63L451.49 267.47Z" fill="#E0E0E0"/>
<path d="M400 252.11L401.45 257.83C403.522 258.33 405.519 259.1 407.39 260.12L412.31 256.84L419.41 263.6L416.41 268.67C417.522 270.485 418.389 272.438 418.99 274.48L424.79 275.65L425.03 285.45L419.29 287C418.792 289.072 418.022 291.069 417 292.94L420.28 297.87L413.52 304.97L408.45 301.97C406.635 303.088 404.677 303.956 402.63 304.55L401.47 310.36L391.67 310.6L390.22 304.88C388.151 304.382 386.157 303.611 384.29 302.59L379.36 305.87L372.26 299.11L375.26 294.04C374.145 292.225 373.281 290.267 372.69 288.22L366.88 287.06L366.64 277.27L372.37 275.83C372.859 273.756 373.626 271.758 374.65 269.89L371.38 264.96L378.13 257.86L383.19 260.86C385.009 259.751 386.965 258.887 389.01 258.29L390.18 252.48L400 252.11ZM407.39 260.18C405.518 259.151 403.517 258.377 401.44 257.88L400 252.15L390.25 252.39L389.08 258.19C387.032 258.79 385.072 259.658 383.25 260.77L378.18 257.77L371.45 264.84L374.73 269.76C373.708 271.634 372.938 273.635 372.44 275.71L366.72 277.16L366.96 286.91L372.75 288.07C373.342 290.121 374.21 292.082 375.33 293.9L372.33 298.97L379.4 305.69L384.31 302.42C386.18 303.45 388.182 304.221 390.26 304.71L391.7 310.43L401.46 310.19L402.62 304.39C404.668 303.79 406.628 302.922 408.45 301.81L413.51 304.81L420.24 297.74L417 292.89C418.026 291.018 418.796 289.017 419.29 286.94L425.01 285.49L424.77 275.74L418.97 274.58C418.372 272.529 417.501 270.568 416.38 268.75L419.38 263.68L412.31 256.96L407.39 260.18ZM395.51 271.12C398.206 271.154 400.78 272.254 402.668 274.179C404.557 276.104 405.607 278.698 405.59 281.394C405.573 284.091 404.489 286.671 402.577 288.572C400.664 290.472 398.077 291.539 395.38 291.539C392.683 291.539 390.096 290.472 388.183 288.572C386.271 286.671 385.187 284.091 385.17 281.394C385.153 278.698 386.203 276.104 388.092 274.179C389.98 272.254 392.554 271.154 395.25 271.12H395.51ZM403.11 288.87C404.522 287.384 405.467 285.517 405.829 283.5C406.191 281.483 405.953 279.403 405.146 277.52C404.338 275.636 402.995 274.031 401.285 272.902C399.574 271.773 397.57 271.171 395.52 271.17H395.26C393.881 271.186 392.519 271.474 391.251 272.017C389.984 272.56 388.835 273.347 387.872 274.334C385.926 276.326 384.852 279.01 384.885 281.795C384.918 284.58 386.056 287.237 388.049 289.183C390.041 291.129 392.725 292.203 395.51 292.17H395.77C397.148 292.14 398.506 291.838 399.766 291.28C401.025 290.722 402.162 289.92 403.11 288.92V288.87Z" fill="#E0E0E0"/>
<path d="M403.12 288.87C402.574 289.551 401.919 290.136 401.18 290.6C399.161 291.93 396.744 292.52 394.34 292.27C392.552 292.091 390.839 291.463 389.36 290.444C387.88 289.424 386.683 288.047 385.88 286.44C385.397 285.518 385.059 284.526 384.88 283.5C384.683 282.434 384.656 281.344 384.8 280.27C385.08 277.988 386.086 275.856 387.671 274.19C389.256 272.525 391.335 271.413 393.6 271.02C394.666 270.824 395.756 270.797 396.83 270.94C397.866 271.062 398.878 271.342 399.83 271.77C401.593 272.549 403.113 273.789 404.23 275.36C405.414 277.022 406.094 278.99 406.186 281.028C406.278 283.067 405.779 285.088 404.75 286.85C404.32 287.601 403.769 288.277 403.12 288.85C403.633 288.162 404.111 287.448 404.55 286.71C405.662 284.657 406.052 282.291 405.66 279.99C405.379 278.298 404.677 276.704 403.62 275.354C402.563 274.003 401.185 272.939 399.61 272.26C397.754 271.468 395.708 271.232 393.72 271.58C391.584 271.961 389.626 273.015 388.131 274.587C386.637 276.159 385.683 278.168 385.41 280.32C385.264 281.337 385.285 282.37 385.47 283.38C385.624 284.352 385.931 285.294 386.38 286.17C387.137 287.705 388.265 289.026 389.662 290.015C391.059 291.003 392.681 291.627 394.38 291.83C396.698 292.106 399.043 291.599 401.04 290.39C401.761 289.922 402.455 289.415 403.12 288.87Z" fill="#EBEBEB"/>
<path d="M408.43 301.87L408.76 302.04L409.76 302.6L413.59 304.82H413.47C415.18 302.99 417.47 300.59 420.17 297.69V297.88L416.87 292.97L416.81 292.88L416.86 292.79C417.87 290.924 418.629 288.934 419.12 286.87V286.76H419.23L424.96 285.29L424.8 285.5C424.72 282.42 424.63 279.15 424.54 275.72L424.73 275.95L418.93 274.79H418.78V274.65C418.177 272.623 417.314 270.684 416.21 268.88L416.13 268.75L416.21 268.61L419.21 263.53V263.86L412.12 257.13H412.47L407.55 260.41L407.4 260.5L407.25 260.42C405.4 259.407 403.422 258.647 401.37 258.16H401.2V257.99C400.75 256.19 400.2 254.23 399.75 252.25L400.04 252.48L390.26 252.72L390.55 252.48L389.38 258.28V258.46H389.2C387.179 259.053 385.246 259.911 383.45 261.01L383.3 261.11L383.14 261.01L378 258L378.37 257.95L371.61 265V264.63L374.88 269.55L374.98 269.7L374.9 269.86C373.881 271.708 373.117 273.686 372.63 275.74V275.91H372.45L366.72 277.36L366.94 277.07C367.01 280.41 367.09 283.68 367.17 286.86L366.94 286.59L372.74 287.76H372.9L372.95 287.91C373.538 289.942 374.396 291.886 375.5 293.69L375.58 293.82L375.5 293.96L372.5 299.03V298.72L379.57 305.48H379.29L384.22 302.22L384.33 302.15L384.44 302.21C386.293 303.231 388.274 304.001 390.33 304.5H390.45V304.61L391.88 310.35L391.7 310.22L401.49 310.02L401.36 310.13C401.84 307.82 402.23 305.92 402.56 304.34V304.28H402.62C404.16 303.842 405.653 303.256 407.08 302.53L408.13 301.97L408.48 301.79C408.377 301.877 408.267 301.954 408.15 302.02C407.93 302.16 407.597 302.36 407.15 302.62C405.73 303.386 404.235 304.006 402.69 304.47L402.76 304.4C402.45 305.98 402.08 307.88 401.63 310.2V310.31H401.53L391.74 310.6H391.6V310.46C391.14 308.69 390.66 306.81 390.13 304.73L390.27 304.88C388.177 304.383 386.159 303.609 384.27 302.58H384.5L379.58 305.87L379.43 305.97L379.29 305.84L372.19 299.11L372.05 298.97L372.15 298.8L375.15 293.72V293.99C374.021 292.147 373.14 290.163 372.53 288.09L372.74 288.28L366.94 287.13L366.72 287.08V286.86C366.64 283.68 366.557 280.42 366.47 277.08V276.85L366.69 276.79L372.42 275.34L372.21 275.55C372.711 273.455 373.491 271.437 374.53 269.55V269.85L371.14 265L371.01 264.8L371.17 264.63L377.92 257.54L378.08 257.37L378.29 257.49L383.37 260.49H383.06C384.902 259.359 386.886 258.478 388.96 257.87L388.75 258.1L389.92 252.3L389.97 252.07H390.2L399.99 251.84H400.22L400.28 252.07C400.78 254.07 401.28 256.01 401.73 257.8L401.51 257.59C403.604 258.098 405.622 258.882 407.51 259.92H407.21L412.14 256.65L412.32 256.53L412.48 256.68C414.94 259.02 417.34 261.31 419.56 263.44L419.72 263.58L419.61 263.77L416.61 268.84V268.57C417.737 270.411 418.611 272.396 419.21 274.47L419.02 274.3L424.82 275.47H425.01V275.66C425.09 279.09 425.16 282.36 425.23 285.44V285.61L425.07 285.66L419.33 287.09L419.47 286.94C418.969 289.036 418.185 291.055 417.14 292.94V292.75L420.4 297.69L420.47 297.79L420.38 297.88C417.62 300.75 415.33 303.12 413.6 304.93H413.54H413.48L409.74 302.64L408.74 302.04L408.43 301.87Z" fill="#EBEBEB"/>
<path d="M416.276 53.8764L408.206 53.9201L408.423 94.0695L416.493 94.0258L416.276 53.8764Z" fill="#E0E0E0"/>
<path d="M359.207 53.9854L338.307 54.0985L338.427 76.2682L359.327 76.1551L359.207 53.9854Z" fill="#EBEBEB"/>
<path d="M379.996 53.873L359.097 53.986L359.217 76.1557L380.116 76.0426L379.996 53.873Z" fill="#F5F5F5"/>
<path d="M338.33 60.24C352.223 60.3467 366.12 60.28 380.02 60.04C380.078 60.04 380.134 60.0168 380.176 59.9756C380.217 59.9343 380.24 59.8783 380.24 59.82C380.24 59.7617 380.217 59.7057 380.176 59.6644C380.134 59.6232 380.078 59.6 380.02 59.6C366.133 59.52 352.237 59.6067 338.33 59.86C338.28 59.86 338.231 59.88 338.196 59.9156C338.16 59.9513 338.14 59.9996 338.14 60.05C338.14 60.1004 338.16 60.1487 338.196 60.1843C338.231 60.22 338.28 60.24 338.33 60.24Z" fill="#E0E0E0"/>
<path d="M363.245 75.7833L325.276 75.9887L325.374 94.0485L363.343 93.843L363.245 75.7833Z" fill="#EBEBEB"/>
<path d="M401.024 75.5789L363.054 75.7843L363.152 93.8441L401.121 93.6386L401.024 75.5789Z" fill="#F5F5F5"/>
<path d="M325.29 81C350.52 81.28 375.83 81 401.05 80.62C401.108 80.62 401.164 80.5968 401.206 80.5556C401.247 80.5143 401.27 80.4583 401.27 80.4C401.27 80.3417 401.247 80.2857 401.206 80.2444C401.164 80.2032 401.108 80.18 401.05 80.18C375.83 80.05 350.52 80.06 325.3 80.62C325.25 80.62 325.201 80.64 325.166 80.6756C325.13 80.7113 325.11 80.7596 325.11 80.81C325.11 80.8604 325.13 80.9087 325.166 80.9443C325.201 80.98 325.25 81 325.3 81H325.29Z" fill="#E0E0E0"/>
<path d="M458.19 94.07H311.1V100.54H458.19V94.07Z" fill="#E0E0E0"/>
<path d="M341.15 97.18H335.18V119.26H341.15V97.18Z" fill="#E0E0E0"/>
<path d="M430.29 97.18H424.32V119.26H430.29V97.18Z" fill="#E0E0E0"/>
<path d="M424.155 38.9038L416.085 38.9474L416.383 94.1666L424.453 94.1229L424.155 38.9038Z" fill="#EBEBEB"/>
<path d="M436.76 49.1855L424.22 49.2534L424.462 94.0027L437.002 93.9349L436.76 49.1855Z" fill="#F5F5F5"/>
<path d="M436.67 57.83C432.495 58.11 428.305 58.11 424.13 57.83C428.305 57.5367 432.495 57.5367 436.67 57.83Z" fill="#E0E0E0"/>
<path d="M436.67 56C432.495 56.28 428.305 56.28 424.13 56C428.305 55.7067 432.495 55.7067 436.67 56Z" fill="#E0E0E0"/>
<path d="M436.67 87.22C432.495 87.5133 428.305 87.5133 424.13 87.22C428.305 86.94 432.495 86.94 436.67 87.22Z" fill="#E0E0E0"/>
<path d="M436.67 85.34C432.495 85.6333 428.305 85.6333 424.13 85.34C428.305 85.06 432.495 85.06 436.67 85.34Z" fill="#E0E0E0"/>
<path d="M430.6 81.24C430.48 81.24 430.39 76.73 430.39 71.16C430.39 65.59 430.48 61.07 430.6 61.07C430.72 61.07 430.82 65.59 430.82 71.16C430.82 76.73 430.72 81.24 430.6 81.24Z" fill="#E0E0E0"/>
<path d="M450.46 60.19H436.81V93.97H450.46V60.19Z" fill="#EBEBEB"/>
<path d="M422.31 48.35C422.304 48.808 422.163 49.2539 421.904 49.6317C421.645 50.0094 421.28 50.3021 420.855 50.4728C420.43 50.6435 419.964 50.6846 419.516 50.5909C419.067 50.4972 418.657 50.2729 418.336 49.9463C418.015 49.6197 417.797 49.2054 417.711 48.7555C417.625 48.3057 417.675 47.8404 417.853 47.4184C418.031 46.9964 418.329 46.6366 418.712 46.3841C419.094 46.1317 419.542 45.9981 420 46C420.306 46.0013 420.609 46.0633 420.892 46.1823C421.174 46.3014 421.43 46.4751 421.645 46.6936C421.859 46.9121 422.029 47.171 422.143 47.4553C422.257 47.7396 422.314 48.0437 422.31 48.35Z" fill="#E0E0E0"/>
<path d="M420.71 54.73H419.28V87.58H420.71V54.73Z" fill="#E0E0E0"/>
<path d="M350.6 433L356.06 468.92H387.82L395.19 433.52L350.6 433Z" fill="#EBEBEB"/>
<path d="M390.75 456C390.75 456.11 382.62 456.19 372.58 456.19C362.54 456.19 354.4 456.11 354.4 456C354.4 455.89 362.54 455.82 372.58 455.82C382.62 455.82 390.75 455.92 390.75 456Z" fill="#FAFAFA"/>
<path d="M390.88 454.26C390.88 454.36 382.68 454.44 372.58 454.44C362.48 454.44 354.28 454.36 354.28 454.26C354.28 454.16 362.47 454.07 372.58 454.07C382.69 454.07 390.88 454.15 390.88 454.26Z" fill="#FAFAFA"/>
<path d="M390.81 452.26C390.81 452.36 382.62 452.45 372.52 452.45C362.42 452.45 354.22 452.36 354.22 452.26C354.22 452.16 362.41 452.07 372.52 452.07C382.63 452.07 390.81 452.16 390.81 452.26Z" fill="#FAFAFA"/>
<path d="M359.71 466.87C359.253 465.393 358.918 463.882 358.71 462.35C358.383 460.839 358.179 459.304 358.1 457.76C358.864 460.751 359.393 463.797 359.68 466.87H359.71Z" fill="#FAFAFA"/>
<path d="M361.87 466.49C361.646 465.03 361.516 463.557 361.48 462.08C361.317 460.609 361.247 459.13 361.27 457.65C361.612 459.093 361.807 460.567 361.85 462.05C362.013 463.525 362.02 465.013 361.87 466.49Z" fill="#FAFAFA"/>
<path d="M365.81 466.49C365.387 465.025 365.116 463.52 365 462C364.759 460.479 364.678 458.938 364.76 457.4C365.056 458.903 365.259 460.422 365.37 461.95C365.604 463.454 365.751 464.969 365.81 466.49Z" fill="#FAFAFA"/>
<path d="M368.57 466.68C368.266 465.166 368.118 463.624 368.13 462.08C368.021 460.543 368.068 458.998 368.27 457.47C368.442 458.997 368.522 460.533 368.51 462.07C368.625 463.604 368.645 465.144 368.57 466.68Z" fill="#FAFAFA"/>
<path d="M373.47 466.49C373.226 465.05 373.112 463.591 373.13 462.13C373.009 460.673 373.009 459.207 373.13 457.75C373.362 459.195 373.476 460.657 373.47 462.12C373.592 463.574 373.592 465.036 373.47 466.49Z" fill="#FAFAFA"/>
<path d="M377 466.68C376.778 463.683 376.801 460.673 377.07 457.68C377.248 459.176 377.298 460.685 377.22 462.19C377.267 463.69 377.193 465.192 377 466.68Z" fill="#FAFAFA"/>
<path d="M380.39 466.2C380.359 464.622 380.449 463.044 380.66 461.48C380.751 459.906 380.965 458.341 381.3 456.8C381.343 458.378 381.253 459.957 381.03 461.52C380.939 463.094 380.726 464.659 380.39 466.2Z" fill="#FAFAFA"/>
<path d="M384.71 465.73C384.72 464.379 384.902 463.035 385.25 461.73C385.472 460.394 385.869 459.093 386.43 457.86C386.229 459.191 385.956 460.509 385.61 461.81C385.391 463.134 385.09 464.443 384.71 465.73Z" fill="#FAFAFA"/>
<path d="M381.65 362.11C381.65 362.11 381.65 362.17 381.65 362.29L381.5 362.79L380.89 364.73C380.62 365.57 380.3 366.6 379.96 367.81C379.62 369.02 379.19 370.37 378.82 371.9C378.45 373.43 377.98 375.09 377.58 376.9C377.18 378.71 376.77 380.65 376.35 382.69C375.59 386.79 374.9 391.31 374.41 396.1C373.92 400.89 373.73 405.46 373.67 409.63C373.67 411.71 373.67 413.69 373.72 415.54C373.77 417.39 373.85 419.12 373.95 420.69C374.05 422.26 374.16 423.69 374.26 424.93C374.36 426.17 374.47 427.25 374.57 428.13C374.67 429.01 374.73 429.66 374.78 430.13C374.78 430.34 374.78 430.51 374.78 430.65C374.78 430.79 374.78 430.84 374.78 430.84C374.776 430.78 374.776 430.72 374.78 430.66C374.78 430.52 374.73 430.35 374.7 430.14C374.63 429.65 374.54 428.98 374.42 428.14C374.3 427.3 374.16 426.19 374.05 424.94C373.94 423.69 373.77 422.27 373.68 420.7C373.59 419.13 373.46 417.4 373.41 415.54C373.36 413.68 373.33 411.7 373.32 409.61C373.32 405.44 373.57 400.85 374.04 396.05C374.51 391.25 375.23 386.72 376.04 382.62C376.46 380.57 376.84 378.62 377.3 376.82C377.76 375.02 378.16 373.34 378.58 371.82C379 370.3 379.42 368.94 379.78 367.74C380.14 366.54 380.48 365.51 380.78 364.68C381.08 363.85 381.28 363.23 381.45 362.76L381.63 362.26C381.633 362.21 381.64 362.159 381.65 362.11Z" fill="#EBEBEB"/>
<path d="M375.92 384.35C376.798 381.765 378.543 379.564 380.86 378.12C381.221 377.83 381.649 377.635 382.104 377.551C382.56 377.467 383.029 377.498 383.47 377.64C384.58 378.17 384.67 379.73 384.34 380.92C383.768 382.933 382.49 384.672 380.74 385.82C379.192 386.965 377.256 387.454 375.35 387.18" fill="#EBEBEB"/>
<path d="M374 399.37C374.82 396.27 377.3 391.87 379.87 389.95C380.259 389.623 380.712 389.382 381.2 389.24C381.444 389.168 381.702 389.159 381.95 389.213C382.198 389.267 382.428 389.383 382.62 389.55C382.843 389.837 382.989 390.175 383.045 390.534C383.101 390.892 383.065 391.259 382.94 391.6C382.416 393.862 381.272 395.934 379.637 397.582C378.001 399.23 375.938 400.389 373.68 400.93" fill="#EBEBEB"/>
<path d="M373.46 412.6C374.731 409.634 376.775 407.065 379.38 405.16C379.657 404.907 379.982 404.711 380.336 404.584C380.689 404.457 381.065 404.401 381.44 404.42C382.56 404.63 383.07 406 382.97 407.13C382.77 409.47 380.97 411.35 379.14 412.8C377.447 413.971 375.608 414.916 373.67 415.61" fill="#EBEBEB"/>
<path d="M373.76 422.1C374.988 419.848 376.695 417.892 378.76 416.37C379.205 416.033 379.722 415.803 380.27 415.7C380.544 415.65 380.827 415.675 381.088 415.774C381.349 415.873 381.578 416.041 381.75 416.26C382.26 417 381.75 418 381.24 418.72C379.463 421.191 376.95 423.036 374.06 423.99" fill="#EBEBEB"/>
<path d="M373.51 418.24C371.34 415.581 368.93 413.128 366.31 410.91C365.91 410.57 365.39 410.2 364.88 410.37C364.684 410.453 364.516 410.592 364.399 410.77C364.281 410.948 364.219 411.157 364.22 411.37C364.221 411.785 364.313 412.195 364.49 412.57C365.354 414.48 366.635 416.171 368.239 417.519C369.844 418.867 371.73 419.838 373.76 420.36" fill="#EBEBEB"/>
<path d="M373.74 405.87L368.09 399C367.592 398.309 366.967 397.719 366.25 397.26C365.887 397.039 365.47 396.923 365.045 396.923C364.62 396.923 364.203 397.039 363.84 397.26C363.514 397.532 363.269 397.889 363.133 398.291C362.997 398.694 362.975 399.126 363.07 399.54C363.273 400.363 363.648 401.133 364.17 401.8C365.267 403.497 366.663 404.981 368.29 406.18C369.95 407.32 371.46 408.06 373.45 407.77" fill="#EBEBEB"/>
<path d="M374.53 392C373.422 388.7 371.458 385.754 368.84 383.46C368.432 383.045 367.921 382.745 367.36 382.59C366.783 382.545 366.208 382.703 365.734 383.035C365.26 383.366 364.916 383.853 364.76 384.41C364.581 385.035 364.535 385.691 364.624 386.335C364.714 386.979 364.937 387.597 365.28 388.15C365.967 389.257 366.872 390.213 367.94 390.96C369.84 392.419 371.96 393.566 374.22 394.36" fill="#EBEBEB"/>
<path d="M376.79 379.53C376.24 375.53 374.16 372.21 371.79 368.98C371.28 368.29 370.57 367.57 369.73 367.7C369.465 367.755 369.219 367.875 369.013 368.05C368.807 368.225 368.648 368.448 368.55 368.7C368.362 369.211 368.287 369.757 368.33 370.3C368.438 372.716 369.254 375.047 370.676 377.003C372.098 378.959 374.065 380.453 376.33 381.3" fill="#EBEBEB"/>
<path d="M378.37 373.19C378.105 371.141 378.035 369.072 378.16 367.01C378.272 364.943 378.966 362.95 380.16 361.26C380.676 360.532 381.386 359.963 382.21 359.62C382.624 359.458 383.072 359.403 383.512 359.46C383.953 359.518 384.372 359.687 384.73 359.95C385.032 360.231 385.266 360.577 385.415 360.961C385.564 361.346 385.624 361.759 385.59 362.17C385.52 362.991 385.307 363.793 384.96 364.54C383.45 368.16 380.96 372.17 378.32 373.19" fill="#EBEBEB"/>
<path d="M353.74 378C353.753 378.17 353.753 378.34 353.74 378.51C353.74 378.88 353.74 379.36 353.74 379.96C353.74 380.56 353.74 381.36 353.74 382.25C353.74 383.14 353.74 384.16 353.85 385.25C353.95 387.5 354.17 390.17 354.51 393.12C354.85 396.07 355.38 399.31 356.07 402.67C356.76 406.03 357.62 409.18 358.47 412.03C359.32 414.88 360.22 417.41 361.04 419.51C361.42 420.56 361.82 421.51 362.15 422.33C362.48 423.15 362.79 423.87 363.04 424.44C363.29 425.01 363.47 425.44 363.61 425.78C363.684 425.931 363.745 426.088 363.79 426.25C363.79 426.25 363.69 426.11 363.54 425.81L362.91 424.5C362.64 423.93 362.31 423.24 361.96 422.41C361.61 421.58 361.19 420.66 360.79 419.6C359.94 417.51 359.04 414.98 358.15 412.13C357.26 409.28 356.42 406.13 355.71 402.74C355 399.35 354.52 396.13 354.17 393.16C353.82 390.19 353.65 387.52 353.59 385.26C353.53 384.14 353.54 383.12 353.53 382.26C353.52 381.4 353.53 380.6 353.53 379.97L353.59 378.51C353.621 378.335 353.671 378.164 353.74 378Z" fill="#E0E0E0"/>
<path d="M354.62 394.33C354.656 392.383 355.363 390.507 356.62 389.02C356.808 388.748 357.059 388.525 357.351 388.37C357.644 388.215 357.969 388.133 358.3 388.13C359.17 388.26 359.57 389.3 359.6 390.18C359.644 391.674 359.147 393.134 358.2 394.29C357.392 395.402 356.177 396.15 354.82 396.37" fill="#E0E0E0"/>
<path d="M356.54 405C356.465 402.302 357.159 399.639 358.54 397.32C358.737 397.016 358.992 396.755 359.29 396.55C359.437 396.455 359.604 396.397 359.778 396.379C359.952 396.362 360.127 396.386 360.29 396.45C360.501 396.602 360.672 396.804 360.787 397.038C360.902 397.271 360.958 397.53 360.95 397.79C361.077 399.442 360.741 401.097 359.982 402.569C359.223 404.042 358.069 405.275 356.65 406.13" fill="#E0E0E0"/>
<path d="M359 414.09C359.231 411.8 360.066 409.612 361.42 407.75C361.555 407.517 361.735 407.314 361.949 407.153C362.164 406.991 362.409 406.875 362.67 406.81C363.48 406.7 364.12 407.53 364.3 408.32C364.66 409.96 363.85 411.62 362.91 413.01C362.006 414.169 360.958 415.208 359.79 416.1" fill="#E0E0E0"/>
<path d="M361.28 420.5C361.633 418.693 362.381 416.985 363.47 415.5C363.701 415.177 364.002 414.91 364.35 414.72C364.526 414.626 364.724 414.581 364.923 414.592C365.123 414.602 365.315 414.668 365.48 414.78C365.99 415.18 365.87 415.96 365.66 416.57C364.983 418.633 363.67 420.429 361.91 421.7" fill="#E0E0E0"/>
<path d="M360.28 417.92C358.231 416.576 356.061 415.425 353.8 414.48C353.638 414.38 353.453 414.323 353.263 414.312C353.072 414.302 352.882 414.339 352.71 414.42C352.596 414.515 352.513 414.642 352.47 414.784C352.428 414.926 352.428 415.078 352.47 415.22C352.557 415.504 352.707 415.764 352.91 415.98C353.91 417.096 355.149 417.973 356.533 418.546C357.918 419.119 359.414 419.373 360.91 419.29" fill="#E0E0E0"/>
<path d="M357.77 409.45L352.44 406C351.951 405.642 351.403 405.375 350.82 405.21C350.526 405.134 350.216 405.141 349.925 405.229C349.634 405.317 349.373 405.484 349.17 405.71C349.011 405.969 348.926 406.266 348.926 406.57C348.926 406.874 349.011 407.171 349.17 407.43C349.486 407.947 349.909 408.39 350.41 408.73C351.523 409.65 352.794 410.361 354.16 410.83C354.768 411.09 355.423 411.224 356.085 411.224C356.747 411.224 357.401 411.09 358.01 410.83" fill="#E0E0E0"/>
<path d="M355.31 399.8C353.846 397.792 351.876 396.209 349.6 395.21C349.232 395.014 348.817 394.92 348.4 394.94C347.997 395.031 347.638 395.262 347.388 395.591C347.137 395.92 347.01 396.327 347.03 396.74C347.04 397.204 347.149 397.661 347.349 398.08C347.549 398.498 347.836 398.87 348.19 399.17C348.895 399.775 349.714 400.231 350.6 400.51C352.202 401.11 353.89 401.448 355.6 401.51" fill="#E0E0E0"/>
<path d="M354.17 390.86C352.828 388.369 350.864 386.268 348.47 384.76C348.255 384.547 347.987 384.395 347.693 384.319C347.4 384.244 347.091 384.247 346.8 384.33C346.63 384.426 346.487 384.564 346.384 384.73C346.281 384.896 346.221 385.085 346.21 385.28C346.193 385.666 346.258 386.051 346.4 386.41C346.992 388.037 348.051 389.453 349.443 390.481C350.836 391.509 352.501 392.104 354.23 392.19" fill="#E0E0E0"/>
<path d="M353.89 386.2C353.267 384.864 352.775 383.471 352.42 382.04C352.059 380.602 352.111 379.09 352.57 377.68C352.771 377.074 353.134 376.534 353.62 376.12C353.867 375.92 354.162 375.787 354.475 375.733C354.788 375.679 355.11 375.705 355.41 375.81C355.672 375.939 355.903 376.124 356.087 376.352C356.27 376.58 356.401 376.846 356.47 377.13C356.596 377.704 356.623 378.296 356.55 378.88C356.3 381.67 355.45 384.95 353.89 386.2Z" fill="#E0E0E0"/>
<path d="M393.9 377.6C393.911 377.77 393.911 377.94 393.9 378.11L393.95 379.56C393.95 380.19 393.95 380.96 393.95 381.85C393.95 382.74 393.95 383.77 393.95 384.85C393.88 387.1 393.69 389.78 393.37 392.75C393.05 395.72 392.52 398.95 391.83 402.32C391.14 405.69 390.26 408.86 389.39 411.72C388.52 414.58 387.59 417.09 386.74 419.18C386.34 420.24 385.92 421.18 385.57 421.99C385.22 422.8 384.9 423.52 384.62 424.08L383.99 425.39C383.925 425.545 383.845 425.692 383.75 425.83C383.796 425.67 383.853 425.513 383.92 425.36C384.07 425.02 384.26 424.58 384.49 424.02C384.72 423.46 385.05 422.74 385.38 421.91C385.71 421.08 386.12 420.15 386.5 419.09C387.31 416.99 388.19 414.46 389.06 411.62C389.93 408.78 390.75 405.62 391.46 402.25C392.17 398.88 392.66 395.66 393.03 392.71C393.4 389.76 393.58 387.08 393.68 384.84C393.76 383.71 393.76 382.69 393.79 381.84C393.82 380.99 393.79 380.18 393.79 379.55C393.79 378.92 393.79 378.47 393.79 378.1C393.804 377.929 393.841 377.761 393.9 377.6Z" fill="#EBEBEB"/>
<path d="M393 394C392.966 392.052 392.26 390.176 391 388.69C390.817 388.415 390.568 388.19 390.277 388.035C389.986 387.88 389.66 387.799 389.33 387.8C388.46 387.93 388.06 388.97 388.03 389.85C387.982 391.343 388.476 392.803 389.42 393.96C390.23 395.072 391.443 395.822 392.8 396.05" fill="#EBEBEB"/>
<path d="M391.09 404.62C391.164 401.922 390.47 399.259 389.09 396.94C388.889 396.636 388.631 396.375 388.33 396.17C388.184 396.074 388.016 396.015 387.842 395.998C387.668 395.98 387.492 396.005 387.33 396.07C387.115 396.219 386.942 396.42 386.827 396.655C386.711 396.889 386.657 397.149 386.67 397.41C386.539 399.063 386.872 400.719 387.632 402.193C388.391 403.666 389.548 404.898 390.97 405.75" fill="#EBEBEB"/>
<path d="M388.61 413.74C388.376 411.449 387.537 409.261 386.18 407.4C386.046 407.167 385.865 406.964 385.651 406.803C385.436 406.641 385.191 406.525 384.93 406.46C384.13 406.36 383.48 407.18 383.31 407.97C382.94 409.61 383.76 411.27 384.7 412.66C385.601 413.822 386.65 414.86 387.82 415.75" fill="#EBEBEB"/>
<path d="M386.36 420.15C386.007 418.341 385.256 416.632 384.16 415.15C383.932 414.824 383.631 414.557 383.28 414.37C383.104 414.278 382.906 414.235 382.707 414.245C382.508 414.256 382.316 414.32 382.15 414.43C381.65 414.83 381.76 415.61 381.97 416.22C382.651 418.284 383.967 420.079 385.73 421.35" fill="#EBEBEB"/>
<path d="M387.36 417.57C389.408 416.23 391.574 415.079 393.83 414.13C393.994 414.03 394.181 413.973 394.372 413.962C394.564 413.952 394.756 413.989 394.93 414.07C395.044 414.165 395.127 414.292 395.17 414.434C395.212 414.576 395.212 414.728 395.17 414.87C395.078 415.154 394.925 415.413 394.72 415.63C393.722 416.749 392.485 417.629 391.099 418.202C389.714 418.775 388.217 419.027 386.72 418.94" fill="#EBEBEB"/>
<path d="M389.86 409.1L395.2 405.63C395.683 405.263 396.233 404.994 396.82 404.84C397.111 404.739 397.426 404.732 397.721 404.821C398.016 404.91 398.275 405.09 398.462 405.335C398.648 405.581 398.752 405.879 398.759 406.187C398.766 406.494 398.675 406.797 398.5 407.05C398.188 407.569 397.768 408.015 397.27 408.36C396.154 409.274 394.884 409.982 393.52 410.45C392.91 410.71 392.253 410.844 391.59 410.844C390.927 410.844 390.27 410.71 389.66 410.45" fill="#EBEBEB"/>
<path d="M392.33 399.45C393.792 397.44 395.763 395.856 398.04 394.86C398.405 394.664 398.816 394.571 399.23 394.59C399.633 394.684 399.99 394.915 400.242 395.244C400.493 395.572 400.623 395.977 400.61 396.39C400.595 396.855 400.484 397.311 400.284 397.731C400.085 398.151 399.801 398.525 399.45 398.83C398.74 399.427 397.922 399.882 397.04 400.17C395.434 400.748 393.746 401.068 392.04 401.12" fill="#EBEBEB"/>
<path d="M393.46 390.51C394.69 387.91 396.83 386.09 399.16 384.41C399.378 384.198 399.648 384.046 399.943 383.971C400.237 383.895 400.547 383.899 400.84 383.98C401.009 384.077 401.15 384.215 401.251 384.381C401.353 384.547 401.411 384.736 401.42 384.93C401.442 385.316 401.377 385.702 401.23 386.06C400.637 387.687 399.579 389.104 398.187 390.134C396.794 391.163 395.129 391.76 393.4 391.85" fill="#EBEBEB"/>
<path d="M393.75 385.85C394.373 384.514 394.865 383.121 395.22 381.69C395.578 380.251 395.523 378.739 395.06 377.33C394.876 376.731 394.53 376.194 394.06 375.78C393.814 375.578 393.52 375.442 393.207 375.386C392.893 375.33 392.571 375.356 392.27 375.46C392.005 375.589 391.771 375.775 391.586 376.005C391.401 376.235 391.269 376.503 391.2 376.79C391.077 377.362 391.053 377.95 391.13 378.53C391.37 381.33 392.22 384.6 393.79 385.85" fill="#EBEBEB"/>
<path d="M347 425.88V432.61C347.003 433.311 347.283 433.983 347.78 434.477C348.276 434.972 348.949 435.25 349.65 435.25H395.65C396.351 435.25 397.024 434.972 397.52 434.477C398.017 433.983 398.297 433.311 398.3 432.61V425.88H347Z" fill="#EBEBEB"/>
<path d="M350.94 435.25L351.32 437.39L393.76 440.42L394.83 435.25H350.94Z" fill="#E0E0E0"/>
<path d="M423.82 136.06H363.8V198.62H423.82V136.06Z" fill="#E0E0E0"/>
<path d="M419.75 136.06H359.73V198.62H419.75V136.06Z" fill="#FAFAFA"/>
<path d="M419.77 198.64H359.77V136H419.77V198.64ZM359.77 198.64H419.77V136.08H359.77V198.64Z" fill="#E0E0E0"/>
<path d="M411.68 144.47H367.8V190.21H411.68V144.47Z" fill="#FAFAFA"/>
<path d="M367.8 190.52C367.492 190.982 367.13 191.405 366.72 191.78C366.02 192.52 365.03 193.52 363.93 194.61C362.83 195.7 361.81 196.61 361.06 197.35C360.679 197.748 360.257 198.103 359.8 198.41C360.102 197.946 360.461 197.523 360.87 197.15C361.57 196.41 362.56 195.41 363.67 194.32C364.78 193.23 365.79 192.26 366.54 191.57C366.918 191.172 367.341 190.82 367.8 190.52Z" fill="#E0E0E0"/>
<path d="M411.69 190.41C412.148 190.719 412.567 191.082 412.94 191.49C413.68 192.19 414.69 193.18 415.77 194.28C416.85 195.38 417.83 196.4 418.52 197.15C418.917 197.529 419.269 197.951 419.57 198.41C419.111 198.106 418.691 197.747 418.32 197.34C417.58 196.64 416.58 195.65 415.49 194.54C414.4 193.43 413.42 192.42 412.74 191.67C412.338 191.296 411.986 190.872 411.69 190.41Z" fill="#E0E0E0"/>
<path d="M411.57 144.59C411.878 144.128 412.24 143.705 412.65 143.33C413.35 142.59 414.33 141.59 415.44 140.51C416.55 139.43 417.56 138.45 418.3 137.76C418.68 137.375 419.107 137.039 419.57 136.76C419.263 137.213 418.904 137.63 418.5 138C417.79 138.74 416.81 139.74 415.7 140.83C414.59 141.92 413.58 142.89 412.83 143.58C412.45 143.964 412.027 144.303 411.57 144.59Z" fill="#E0E0E0"/>
<path d="M367.68 144.71C367.222 144.392 366.8 144.027 366.42 143.62C365.68 142.92 364.68 141.94 363.6 140.83C362.52 139.72 361.54 138.71 360.85 137.97C360.448 137.593 360.095 137.166 359.8 136.7C360.258 137.009 360.678 137.371 361.05 137.78C361.79 138.48 362.79 139.46 363.88 140.57C364.97 141.68 365.94 142.69 366.63 143.44C367.032 143.817 367.385 144.244 367.68 144.71Z" fill="#E0E0E0"/>
<path d="M411.57 190.21C411.559 190.137 411.559 190.063 411.57 189.99C411.57 189.84 411.57 189.63 411.57 189.35C411.57 188.78 411.57 187.96 411.57 186.88C411.57 184.72 411.57 181.57 411.57 177.56C411.57 169.56 411.52 158.14 411.49 144.47L411.66 144.64H367.9L368.1 144.44C368.1 161.23 368.1 176.94 368.1 190.18L367.93 190.02L399.62 190.1L408.52 190.15H410.87H408.55L399.69 190.2L367.89 190.28H367.73V190.11C367.73 176.87 367.73 161.11 367.73 144.37V144.18H367.93H411.69H411.86V144.35C411.86 158.06 411.8 169.51 411.78 177.55C411.78 181.55 411.78 184.68 411.78 186.83C411.78 187.89 411.78 188.71 411.78 189.27C411.78 189.54 411.78 189.74 411.78 189.89L411.57 190.21Z" fill="#E0E0E0"/>
<path d="M397.06 160.02H382.42V174.66H397.06V160.02Z" fill="#EBEBEB"/>
<path d="M413.23 294.13H86.01C73.5615 294.13 63.47 304.222 63.47 316.67V320.1C63.47 332.549 73.5615 342.64 86.01 342.64H413.23C425.678 342.64 435.77 332.549 435.77 320.1V316.67C435.77 304.222 425.678 294.13 413.23 294.13Z" fill="#FAFAFA"/>
<path d="M349.85 294.13H414.05C419.808 294.13 425.33 296.417 429.401 300.489C433.473 304.56 435.76 310.082 435.76 315.84V320.92C435.76 326.678 433.473 332.2 429.401 336.271C425.33 340.343 419.808 342.63 414.05 342.63H349.85V294.13Z" fill="#0AF886"/>
<path d="M104.58 319.42V325.83H102V319.75C102 317.75 101 316.8 99.34 316.8C97.48 316.8 96.22 317.93 96.22 320.17V325.83H93.56V310.28H96.18V315.94C96.6709 315.46 97.2554 315.086 97.8972 314.842C98.5389 314.597 99.2241 314.488 99.91 314.52C102.59 314.52 104.58 316.05 104.58 319.42Z" fill="#263238"/>
<path d="M114.64 325.22C113.908 325.739 113.027 326.006 112.13 325.98C109.68 325.98 108.27 324.68 108.27 322.2V316.82H106.43V314.73H108.27V312.17H110.89V314.73H113.89V316.82H110.89V322.14C110.89 323.23 111.44 323.82 112.44 323.82C112.967 323.834 113.485 323.672 113.91 323.36L114.64 325.22Z" fill="#263238"/>
<path d="M123.25 325.22C122.519 325.741 121.637 326.008 120.74 325.98C118.29 325.98 116.89 324.68 116.89 322.2V316.82H115V314.73H116.85V312.17H119.46V314.73H122.46V316.82H119.46V322.14C119.46 323.23 120.01 323.82 121.01 323.82C121.537 323.834 122.055 323.672 122.48 323.36L123.25 325.22Z" fill="#263238"/>
<path d="M137.29 320.24C137.331 320.999 137.213 321.757 136.944 322.468C136.674 323.178 136.259 323.824 135.725 324.365C135.191 324.905 134.55 325.328 133.843 325.606C133.136 325.885 132.379 326.012 131.62 325.98C130.948 326.004 130.279 325.882 129.659 325.621C129.039 325.36 128.483 324.967 128.03 324.47V329.89H125.41V314.64H127.91V316.11C128.367 315.581 128.939 315.163 129.582 314.887C130.225 314.612 130.922 314.486 131.62 314.52C132.378 314.487 133.134 314.613 133.84 314.889C134.546 315.165 135.187 315.586 135.721 316.125C136.255 316.664 136.67 317.308 136.941 318.017C137.211 318.725 137.33 319.483 137.29 320.24ZM134.63 320.24C134.597 319.591 134.374 318.966 133.989 318.443C133.604 317.92 133.074 317.521 132.465 317.296C131.855 317.071 131.193 317.029 130.561 317.177C129.928 317.324 129.353 317.654 128.905 318.125C128.458 318.597 128.16 319.189 128.046 319.828C127.932 320.468 128.008 321.127 128.265 321.724C128.522 322.32 128.949 322.828 129.492 323.185C130.035 323.542 130.67 323.731 131.32 323.73C131.773 323.74 132.223 323.654 132.641 323.48C133.059 323.306 133.435 323.046 133.747 322.717C134.059 322.389 134.298 321.998 134.45 321.572C134.602 321.145 134.664 320.692 134.63 320.24Z" fill="#263238"/>
<path d="M138.91 316.25C138.892 316.014 138.923 315.776 139.001 315.553C139.079 315.329 139.202 315.124 139.363 314.95C139.524 314.776 139.72 314.638 139.937 314.543C140.154 314.448 140.388 314.399 140.625 314.399C140.862 314.399 141.096 314.448 141.313 314.543C141.531 314.638 141.726 314.776 141.887 314.95C142.048 315.124 142.171 315.329 142.249 315.553C142.327 315.776 142.358 316.014 142.34 316.25C142.358 316.486 142.327 316.724 142.249 316.947C142.171 317.171 142.048 317.376 141.887 317.55C141.726 317.724 141.531 317.862 141.313 317.957C141.096 318.052 140.862 318.101 140.625 318.101C140.388 318.101 140.154 318.052 139.937 317.957C139.72 317.862 139.524 317.724 139.363 317.55C139.202 317.376 139.079 317.171 139.001 316.947C138.923 316.724 138.892 316.486 138.91 316.25ZM138.91 324.25C138.892 324.014 138.923 323.776 139.001 323.553C139.079 323.329 139.202 323.124 139.363 322.95C139.524 322.776 139.72 322.638 139.937 322.543C140.154 322.448 140.388 322.399 140.625 322.399C140.862 322.399 141.096 322.448 141.313 322.543C141.531 322.638 141.726 322.776 141.887 322.95C142.048 323.124 142.171 323.329 142.249 323.553C142.327 323.776 142.358 324.014 142.34 324.25C142.358 324.486 142.327 324.724 142.249 324.947C142.171 325.171 142.048 325.376 141.887 325.55C141.726 325.724 141.531 325.862 141.313 325.957C141.096 326.052 140.862 326.101 140.625 326.101C140.388 326.101 140.154 326.052 139.937 325.957C139.72 325.862 139.524 325.724 139.363 325.55C139.202 325.376 139.079 325.171 139.001 324.947C138.923 324.724 138.892 324.486 138.91 324.25Z" fill="#263238"/>
<path d="M150.52 308.19H152.86L146 327.92H143.6L150.52 308.19Z" fill="#263238"/>
<path d="M156.82 308.19H159.17L152.26 327.92H149.91L156.82 308.19Z" fill="#263238"/>
<path d="M176.85 314.64L172.73 325.83H170.21L167.32 318.12L164.39 325.83H161.87L157.77 314.64H160.24L163.19 322.9L166.27 314.64H168.47L171.47 322.94L174.47 314.64H176.85Z" fill="#263238"/>
<path d="M195.9 314.64L191.77 325.83H189.26L186.37 318.12L183.43 325.83H180.92L176.81 314.64H179.29L182.29 322.9L185.37 314.64H187.57L190.57 322.94L193.57 314.64H195.9Z" fill="#263238"/>
<path d="M215 314.64L210.87 325.83H208.36L205.47 318.12L202.53 325.83H200L195.89 314.64H198.36L201.36 322.9L204.44 314.64H206.64L209.64 322.94L212.64 314.64H215Z" fill="#263238"/>
<path d="M215.18 324.24C215.18 323.784 215.361 323.346 215.684 323.024C216.006 322.701 216.444 322.52 216.9 322.52C217.356 322.52 217.794 322.701 218.116 323.024C218.439 323.346 218.62 323.784 218.62 324.24C218.62 324.696 218.439 325.134 218.116 325.456C217.794 325.779 217.356 325.96 216.9 325.96C216.444 325.96 216.006 325.779 215.684 325.456C215.361 325.134 215.18 324.696 215.18 324.24Z" fill="#263238"/>
<path d="M413.22 342.63L415.29 342.51C415.97 342.44 416.81 342.29 417.81 342.13C418.956 341.877 420.082 341.543 421.18 341.13C424.266 339.96 427.056 338.123 429.35 335.75C430.8 334.229 432.044 332.525 433.05 330.68C434.161 328.564 434.931 326.286 435.33 323.93C435.701 321.28 435.801 318.6 435.63 315.93C435.545 312.981 434.865 310.079 433.63 307.4C432.285 304.477 430.336 301.873 427.91 299.76C425.29 297.471 422.164 295.837 418.79 294.99C417.021 294.539 415.205 294.301 413.38 294.28H395.78H369.87L86 294.34C80.853 294.352 75.867 296.135 71.8792 299.389C67.8913 302.643 65.1445 307.17 64.1 312.21C63.99 313.05 63.82 313.87 63.75 314.71C63.68 315.55 63.64 316.38 63.65 317.23V319.77C63.65 320.61 63.73 321.44 63.76 322.28C64.2484 327.259 66.3977 331.93 69.8622 335.539C73.3267 339.149 77.9049 341.488 82.86 342.18C83.6643 342.305 84.4762 342.375 85.29 342.39C86.1 342.45 86.93 342.39 87.75 342.39H168.02L295.62 342.44L381.62 342.51H405.01H411.09H413.16C413.16 342.51 412.46 342.51 411.09 342.51H405.01H381.62L295.62 342.58H168.02H87.78C86.95 342.58 86.14 342.58 85.31 342.58C84.4796 342.566 83.651 342.495 82.83 342.37C77.7807 341.665 73.1157 339.281 69.5858 335.602C66.0559 331.923 63.8665 327.164 63.37 322.09C63.37 321.24 63.26 320.38 63.25 319.54V317C63.25 316.16 63.32 315.29 63.36 314.44C63.4 313.59 63.59 312.75 63.71 311.9C64.818 306.81 67.6322 302.251 71.6862 298.979C75.7401 295.707 80.7904 293.918 86 293.91L369.84 293.97H395.75H413.35C415.196 293.993 417.033 294.238 418.82 294.7C422.227 295.556 425.381 297.212 428.02 299.53C430.467 301.667 432.433 304.298 433.79 307.25C435.023 309.958 435.703 312.885 435.79 315.86C435.947 318.531 435.839 321.21 435.47 323.86C435.053 326.23 434.27 328.52 433.15 330.65C432.133 332.504 430.875 334.215 429.41 335.74C427.097 338.116 424.286 339.949 421.18 341.11C420.075 341.524 418.943 341.858 417.79 342.11C416.79 342.26 415.95 342.42 415.26 342.47L413.22 342.63Z" fill="#263238"/>
<path d="M386.34 325C384.261 325 382.228 324.383 380.5 323.228C378.771 322.073 377.424 320.431 376.629 318.51C375.834 316.589 375.626 314.475 376.033 312.436C376.439 310.397 377.441 308.524 378.912 307.055C380.383 305.585 382.256 304.585 384.296 304.181C386.335 303.776 388.449 303.986 390.369 304.783C392.289 305.58 393.93 306.929 395.084 308.658C396.237 310.388 396.852 312.421 396.85 314.5C396.847 317.286 395.739 319.956 393.768 321.925C391.797 323.894 389.126 325 386.34 325ZM386.34 304.82C384.425 304.816 382.551 305.38 380.957 306.442C379.362 307.503 378.118 309.013 377.383 310.782C376.647 312.55 376.452 314.497 376.824 316.376C377.195 318.255 378.115 319.982 379.468 321.338C380.821 322.693 382.546 323.617 384.424 323.993C386.302 324.368 388.25 324.177 390.02 323.445C391.79 322.713 393.303 321.472 394.367 319.88C395.432 318.288 396 316.415 396 314.5C395.997 311.937 394.979 309.479 393.169 307.665C391.358 305.851 388.903 304.828 386.34 304.82Z" fill="white"/>
<path d="M402.84 332.89C402.727 332.888 402.619 332.841 402.54 332.76L393 322.45C392.938 322.367 392.909 322.264 392.918 322.161C392.928 322.059 392.974 321.963 393.05 321.892C393.125 321.821 393.224 321.781 393.328 321.779C393.431 321.777 393.531 321.813 393.61 321.88L403.2 332.19C403.275 332.27 403.317 332.375 403.317 332.485C403.317 332.595 403.275 332.7 403.2 332.78C403.151 332.823 403.094 332.855 403.032 332.874C402.97 332.892 402.904 332.898 402.84 332.89Z" fill="white"/>
<path d="M222.41 329.47C222.29 329.47 222.19 324.53 222.19 318.47C222.19 312.41 222.29 307.47 222.41 307.47C222.53 307.47 222.62 312.41 222.62 318.47C222.62 324.53 222.53 329.47 222.41 329.47Z" fill="#0AF886"/>
<path d="M248.19 126.91C246.592 139.862 246.609 152.962 248.24 165.91C248.65 169.19 249.35 172.77 251.93 174.82C255.01 177.26 259.84 176.41 262.64 173.66C265.44 170.91 266.48 166.78 266.43 162.85C266.38 158.92 265.37 155.09 264.66 151.23C263.72 146.14 263.25 140.86 260.97 136.23C258.69 131.6 253.97 127.63 248.85 128.15" fill="#263238"/>
<path d="M255.77 88.82C261.64 83.04 274.23 84.51 280.77 89.48C287.31 94.45 290.77 102.64 292.15 110.77C293.53 118.9 293.21 127.22 293.88 135.43C294.55 143.64 296.4 152.11 301.47 158.61C303.64 161.38 306.35 163.73 308.28 166.67C310.113 169.472 311.152 172.719 311.286 176.065C311.42 179.411 310.644 182.73 309.04 185.67C307.334 188.553 304.801 190.857 301.77 192.284C298.739 193.71 295.349 194.193 292.04 193.67C285.22 192.38 279.98 186.57 277.37 180.14C274.76 173.71 274.37 166.63 273.8 159.71C272.14 138.168 269.241 116.739 265.12 95.53" fill="#263238"/>
<path d="M248.59 152.34L254.7 150.68H281.63L296.23 159.3C296.23 159.3 270.7 170.79 261.23 166.18C255.607 163.447 251.128 158.819 248.58 153.11" fill="#C69481"/>
<path d="M281.84 103.59L282 100L260.5 95.22C253.85 94.3 246.43 100.77 245.8 107.45C245.1 114.87 244.54 123.96 245.25 129.53C246.67 140.75 255.18 142.43 255.18 142.43L256.09 166.94L280.77 168L281.84 103.59Z" fill="#C69481"/>
<path d="M249 115.28C248.983 115.653 249.113 116.017 249.362 116.296C249.61 116.574 249.958 116.744 250.33 116.77C250.512 116.789 250.696 116.772 250.872 116.72C251.047 116.667 251.21 116.58 251.352 116.464C251.493 116.347 251.61 116.204 251.696 116.042C251.781 115.88 251.834 115.702 251.85 115.52C251.864 115.149 251.733 114.787 251.485 114.511C251.236 114.235 250.89 114.066 250.52 114.04C250.338 114.019 250.154 114.035 249.979 114.087C249.804 114.138 249.64 114.224 249.499 114.34C249.357 114.455 249.24 114.598 249.154 114.759C249.069 114.921 249.016 115.098 249 115.28Z" fill="#263238"/>
<path d="M248 111.41C248.17 111.6 249.28 110.83 250.82 110.89C252.36 110.95 253.47 111.74 253.64 111.56C253.81 111.38 253.55 111.14 253.07 110.76C252.418 110.283 251.637 110.015 250.83 109.99C250.028 109.968 249.238 110.195 248.57 110.64C248.12 111 248 111.32 248 111.41Z" fill="#263238"/>
<path d="M264.06 116C264.043 116.373 264.173 116.737 264.422 117.016C264.67 117.294 265.018 117.464 265.39 117.49C265.572 117.509 265.756 117.492 265.932 117.44C266.107 117.387 266.27 117.3 266.412 117.184C266.553 117.067 266.67 116.924 266.756 116.762C266.841 116.6 266.894 116.422 266.91 116.24C266.924 115.867 266.791 115.504 266.541 115.227C266.291 114.951 265.942 114.783 265.57 114.76C265.389 114.739 265.206 114.755 265.031 114.807C264.856 114.858 264.693 114.944 264.552 115.06C264.411 115.176 264.295 115.319 264.211 115.48C264.126 115.642 264.075 115.818 264.06 116Z" fill="#263238"/>
<path d="M263.16 112.21C263.33 112.4 264.44 111.63 265.98 111.68C267.52 111.73 268.62 112.54 268.8 112.36C268.98 112.18 268.71 111.93 268.23 111.56C267.575 111.081 266.791 110.813 265.98 110.79C265.18 110.764 264.393 110.991 263.73 111.44C263.25 111.79 263.08 112.12 263.16 112.21Z" fill="#263238"/>
<path d="M257.22 124.25C256.415 123.971 255.579 123.793 254.73 123.72C254.34 123.72 253.97 123.58 253.91 123.31C253.889 122.902 253.994 122.497 254.21 122.15C254.61 121.21 255.03 120.23 255.46 119.15C257.21 114.94 258.46 111.47 258.32 111.4C258.18 111.33 256.59 114.69 254.85 118.91L253.64 121.91C253.382 122.379 253.294 122.923 253.39 123.45C253.443 123.591 253.527 123.718 253.636 123.822C253.745 123.926 253.877 124.004 254.02 124.05C254.235 124.111 254.457 124.148 254.68 124.16C255.519 124.298 256.373 124.328 257.22 124.25Z" fill="#263238"/>
<path d="M255.21 142.45C260.582 142.703 265.921 141.482 270.65 138.92C270.65 138.92 266.87 146.64 255.35 145.26L255.21 142.45Z" fill="#936457"/>
<path d="M257.75 128C258.051 127.634 258.44 127.35 258.881 127.175C259.322 127 259.8 126.94 260.27 127C260.609 127.042 260.936 127.153 261.232 127.325C261.528 127.496 261.785 127.726 261.99 128C262.187 128.263 262.299 128.58 262.312 128.909C262.324 129.238 262.236 129.562 262.06 129.84C261.806 130.101 261.482 130.282 261.127 130.362C260.772 130.441 260.401 130.417 260.06 130.29C259.341 130.008 258.685 129.587 258.13 129.05C257.959 128.924 257.817 128.764 257.71 128.58C257.651 128.497 257.619 128.397 257.619 128.295C257.619 128.193 257.651 128.093 257.71 128.01" fill="#936457"/>
<path d="M261.72 125.46C261.47 125.46 261.41 127.11 259.94 128.25C258.47 129.39 256.7 129.15 256.68 129.38C256.66 129.61 257.07 129.72 257.82 129.76C258.799 129.807 259.763 129.506 260.54 128.91C261.283 128.336 261.777 127.498 261.92 126.57C262 125.87 261.83 125.45 261.72 125.46Z" fill="#263238"/>
<path d="M281.51 121.14C283.46 119.85 284.31 108.72 284.23 104.14C284.15 99.56 281.7 95.5 278.48 92.26C275 88.76 270.92 87.53 266 87C263.24 86.7 260.28 86.34 257.61 87.1C254.94 87.86 253.45 88.8 252.15 91.25C251.43 92.61 251.24 94.55 252.49 95.44C253.74 96.33 255.31 95.61 256.72 95.21C260.46 94.14 264.56 95.35 267.79 97.51C271.02 99.67 273.56 102.72 276.05 105.72C279.28 109.63 280.81 116.13 281.53 121.14" fill="#0AF886"/>
<path d="M243.85 95.12C245.28 90.58 254.12 84.96 263.48 89.12C267.78 89.27 271.96 89.98 276.54 94.12C284.81 101.67 281.64 120.12 281.64 120.12C276.564 117.506 272.075 113.881 268.45 109.47C263.14 103.07 260.23 98.06 259.19 95.02C250.55 97.1 247.29 104.65 245.77 107.92C243.82 105.78 241.32 103.13 243.85 95.12Z" fill="#263238"/>
<path d="M279.81 119.06C279.99 118.97 287.17 116.55 287.24 123.98C287.31 131.41 279.84 129.98 279.83 129.73C279.82 129.48 279.81 119.06 279.81 119.06Z" fill="#C69481"/>
<path d="M282.07 126.89C282.07 126.89 282.2 126.98 282.42 127.08C282.578 127.148 282.748 127.183 282.92 127.183C283.092 127.183 283.262 127.148 283.42 127.08C283.897 126.77 284.282 126.34 284.537 125.832C284.792 125.324 284.907 124.757 284.87 124.19C284.879 123.556 284.749 122.928 284.49 122.35C284.418 122.114 284.29 121.899 284.115 121.725C283.941 121.55 283.726 121.422 283.49 121.35C283.341 121.31 283.183 121.325 283.044 121.391C282.905 121.456 282.794 121.57 282.73 121.71C282.63 121.92 282.68 122.07 282.64 122.08C282.6 122.09 282.48 121.96 282.54 121.65C282.578 121.466 282.677 121.301 282.82 121.18C283.027 121.026 283.285 120.958 283.54 120.99C283.846 121.046 284.132 121.181 284.37 121.381C284.609 121.581 284.791 121.839 284.9 122.13C285.221 122.768 285.383 123.475 285.37 124.19C285.37 125.69 284.58 127.1 283.51 127.42C283.312 127.481 283.102 127.496 282.898 127.463C282.693 127.43 282.499 127.35 282.33 127.23C282.08 127.07 282 126.91 282.07 126.89Z" fill="#936457"/>
<path d="M199.85 284.82L184.85 286.48L175.72 292.21C175.72 292.21 175.54 294.07 178.14 293.77L183.29 291.6L179.21 296.06C179.21 296.06 180.21 297.85 182.44 296.6C183.836 295.793 185.064 294.728 186.06 293.46L195.06 292.83C195.06 292.83 188.26 299.37 189.51 301.07C190.76 302.77 191.57 302.41 192.51 301.79C193.45 301.17 194.04 299.01 196.27 298.3C198.5 297.59 202.21 295.49 206.21 293.59C209.66 291.96 213.15 280.29 213.15 280.29L201.66 278.05L199.85 284.82Z" fill="#C69481"/>
<path d="M193.89 288.64C193.89 288.83 190.11 289.56 185.38 290.27H185.26L185.45 290.17C182.15 293.55 179.38 296.17 179.24 296.04C179.1 295.91 181.66 293.04 184.96 289.69L185.04 289.6H185.15H185.28C190 288.88 193.86 288.45 193.89 288.64Z" fill="#936457"/>
<path d="M289.66 379.01L286.87 354.83L264.45 361.11L270.11 384.3L289.66 379.01Z" fill="#C69481"/>
<path d="M289.91 379L293.7 407.18L303.13 428.61C303.291 428.975 303.374 429.37 303.376 429.769C303.378 430.168 303.297 430.563 303.14 430.93C302.982 431.297 302.751 431.627 302.46 431.901C302.17 432.174 301.826 432.385 301.45 432.52C301.013 432.679 300.545 432.731 300.084 432.672C299.623 432.613 299.182 432.444 298.8 432.18C293.87 428.74 275.8 416.02 275.61 413.94C275.42 411.53 269.61 384.48 269.61 384.48L289.91 379Z" fill="#0AF886"/>
<g opacity="0.6">
<path d="M301.45 432.47L275.31 412L275.5 413.19C275.66 414.217 276.181 415.153 276.97 415.83C279.09 417.65 285.03 422.53 298.72 432.14C299.112 432.417 299.567 432.593 300.043 432.651C300.52 432.708 301.003 432.646 301.45 432.47Z" fill="white"/>
</g>
<g opacity="0.6">
<path d="M279.65 402C280.035 402.2 280.333 402.535 280.486 402.941C280.639 403.347 280.637 403.795 280.48 404.2C280.297 404.593 279.969 404.901 279.565 405.059C279.161 405.217 278.712 405.214 278.31 405.05C277.901 404.839 277.586 404.484 277.425 404.053C277.264 403.622 277.27 403.147 277.44 402.72C277.673 402.331 278.049 402.047 278.488 401.93C278.926 401.812 279.393 401.87 279.79 402.09" fill="white"/>
</g>
<path d="M293.09 421.21C293.625 420.225 294.345 419.352 295.21 418.64C296.72 417.54 298.34 417.69 298.35 417.51C298.36 417.33 297.97 417.27 297.3 417.29C296.418 417.319 295.564 417.612 294.85 418.13C294.127 418.625 293.564 419.32 293.23 420.13C293 420.78 293 421.2 293.09 421.21Z" fill="#263238"/>
<path d="M295.69 424.66C295.84 424.76 296.6 423.66 297.98 423.06C298.86 422.742 299.758 422.479 300.67 422.27C300.73 422.11 299.28 421.73 297.67 422.49C296.06 423.25 295.53 424.61 295.69 424.66Z" fill="#263238"/>
<path d="M288.61 417C288.76 417.11 289.92 415.48 291.98 414.29C294.04 413.1 295.98 412.85 295.98 412.66C295.98 412.47 293.85 412.44 291.65 413.75C289.45 415.06 288.46 416.92 288.61 417Z" fill="#263238"/>
<path d="M286.74 408.51C286.84 408.66 288.29 407.77 290.3 407.38C292.31 406.99 293.98 407.22 294.01 407.04C294.04 406.86 292.33 406.32 290.17 406.77C288.01 407.22 286.63 408.39 286.74 408.51Z" fill="#263238"/>
<path d="M285.41 400.26C285.53 400.41 286.94 399.26 289.09 398.99C291.24 398.72 292.89 399.51 292.96 399.34C293.03 399.17 292.63 398.97 291.96 398.69C291.025 398.355 290.025 398.245 289.04 398.37C288.057 398.479 287.114 398.822 286.29 399.37C285.64 399.82 285.36 400.21 285.41 400.26Z" fill="#263238"/>
<path d="M288.79 397.43C288.829 397.068 288.785 396.702 288.66 396.36C288.414 395.4 287.979 394.499 287.38 393.71C286.991 393.095 286.412 392.624 285.73 392.37C285.497 392.307 285.25 392.318 285.023 392.4C284.796 392.483 284.599 392.633 284.46 392.83C284.22 393.233 284.135 393.709 284.22 394.17C284.432 395.105 284.963 395.936 285.723 396.52C286.482 397.105 287.422 397.405 288.38 397.37C289.325 397.318 290.233 396.986 290.988 396.416C291.743 395.847 292.311 395.064 292.62 394.17C292.7 393.946 292.729 393.707 292.707 393.471C292.684 393.234 292.61 393.005 292.49 392.8C292.346 392.603 292.144 392.457 291.913 392.382C291.681 392.306 291.432 392.306 291.2 392.38C290.534 392.641 289.951 393.076 289.51 393.64C288.84 394.366 288.305 395.206 287.93 396.12C287.771 396.431 287.679 396.771 287.66 397.12C288.222 395.946 288.953 394.861 289.83 393.9C290.236 393.431 290.751 393.071 291.33 392.85C291.455 392.804 291.591 392.801 291.718 392.841C291.844 392.88 291.954 392.961 292.03 393.07C292.093 393.212 292.126 393.365 292.126 393.52C292.126 393.675 292.093 393.828 292.03 393.97C291.739 394.734 291.234 395.398 290.577 395.884C289.919 396.37 289.136 396.656 288.32 396.71C287.51 396.736 286.716 396.486 286.067 396.001C285.418 395.516 284.954 394.824 284.75 394.04C284.681 393.721 284.727 393.388 284.88 393.1C284.953 392.989 285.058 392.903 285.182 392.855C285.306 392.807 285.441 392.798 285.57 392.83C286.155 393.064 286.654 393.473 287 394C287.795 395.029 288.401 396.19 288.79 397.43Z" fill="#263238"/>
<path d="M237.8 240.52L237.39 246.62C237.39 246.62 232.24 256.37 231.77 265.11C231.49 270.18 231.38 277.66 231.33 283.04C231.29 287.37 232.49 291.621 234.79 295.29L245.11 311.84L243.69 330.53L262.4 368L290.09 361L286.81 291.85L275.67 255.33L273.55 238L237.8 240.52Z" fill="#263238"/>
<path d="M293.58 236.72L294.07 244.67C294.07 244.67 316.31 197.31 346.65 191.47C366.36 187.67 374.13 209.16 367.21 226.22C363.05 236.49 345.77 256.15 345.75 256.6C345.2 267.15 334.46 265.6 334.46 265.6C334.46 265.6 321 286.85 317 291C314.26 293.85 285.35 292.83 285.35 292.83L276.26 274.04L272.6 238.04L293.58 236.72Z" fill="#263238"/>
<path d="M255.13 286.37C255.015 286.956 254.841 287.529 254.61 288.08C254.2 289.28 253.68 290.82 253.04 292.66C251.73 296.53 250.04 301.91 248.36 307.93C246.68 313.95 245.48 319.46 244.65 323.46C244.26 325.37 243.94 326.97 243.65 328.21C243.574 328.8 243.434 329.381 243.23 329.94C243.235 329.342 243.295 328.746 243.41 328.16C243.55 327.03 243.81 325.39 244.17 323.37C244.89 319.37 246.07 313.8 247.71 307.76C249.35 301.72 251.15 296.35 252.58 292.51C253.29 290.59 253.9 289.04 254.35 287.99C254.558 287.427 254.819 286.884 255.13 286.37Z" fill="#455A64"/>
<path d="M248.23 278.91C248.172 280.417 248.025 281.92 247.79 283.41C247.47 286.19 247.1 290.02 246.89 294.27C246.68 298.52 246.68 302.38 246.73 305.17C246.819 306.675 246.819 308.185 246.73 309.69C246.612 309.3 246.545 308.897 246.53 308.49C246.44 307.71 246.35 306.58 246.27 305.18C246.082 301.536 246.082 297.884 246.27 294.24C246.445 290.594 246.806 286.959 247.35 283.35C247.57 281.97 247.77 280.85 247.94 280.09C247.985 279.686 248.082 279.289 248.23 278.91Z" fill="#455A64"/>
<path d="M290.09 359.53C290.082 359.417 290.082 359.303 290.09 359.19C290.09 358.93 290.09 358.61 290.01 358.19C290.01 357.28 289.87 356.01 289.77 354.39C289.58 351.04 289.32 346.28 288.99 340.39C288.39 328.54 287.56 312.24 286.66 294.24C286.37 289.74 286.47 285.3 285.52 281.24C284.617 277.262 283.055 273.463 280.9 270C277.276 264.101 271.968 259.424 265.66 256.57C261.425 254.63 256.862 253.51 252.21 253.27C250.57 253.2 249.29 253.27 248.42 253.27L247.42 253.32H247.08C248.776 253.055 250.494 252.955 252.21 253.02C256.915 253.159 261.546 254.222 265.84 256.15C268.812 257.469 271.588 259.192 274.09 261.27C276.95 263.679 279.417 266.52 281.4 269.69C283.586 273.198 285.168 277.048 286.08 281.08C287.08 285.29 286.95 289.75 287.24 294.23C288.08 312.23 288.84 328.53 289.39 340.39C289.63 346.26 289.82 351.03 289.96 354.39C289.96 356.01 290.06 357.28 290.09 358.2C290.09 358.6 290.09 358.93 290.09 359.2C290.09 359.47 290.11 359.53 290.09 359.53Z" fill="#455A64"/>
<path d="M277.42 261.13C277.29 261.01 279.94 257.58 283.34 253.46C286.74 249.34 289.62 246.09 289.76 246.2C289.9 246.31 287.25 249.75 283.84 253.87C280.43 257.99 277.56 261.24 277.42 261.13Z" fill="#455A64"/>
<path d="M321.72 233.07C324.34 228.795 327.219 224.684 330.34 220.76C331.556 219.09 332.936 217.546 334.46 216.15C333.358 217.905 332.16 219.598 330.87 221.22C328.62 224.31 325.58 228.64 322.52 233.63C319.46 238.62 316.58 243.19 316.05 247.01C315.741 249.067 315.94 251.168 316.63 253.13C316.235 252.704 315.956 252.184 315.82 251.62C315.325 250.102 315.178 248.492 315.39 246.91C315.721 244.596 316.467 242.36 317.59 240.31" fill="#455A64"/>
<path d="M337.16 210C337.3 210.13 336.22 211.48 335.55 213.45C334.88 215.42 334.86 217.14 334.66 217.15C334.46 217.16 334.19 215.34 334.94 213.24C335.69 211.14 337.05 209.9 337.16 210Z" fill="#455A64"/>
<path d="M274.49 310.24C274.33 310.16 275.72 306.91 277.6 302.98C279.48 299.05 281.14 295.93 281.3 295.98C281.46 296.03 280.07 299.3 278.19 303.23C276.31 307.16 274.65 310.31 274.49 310.24Z" fill="#455A64"/>
<path d="M258.82 299.49C258.99 299.43 259.7 300.94 260.41 302.87C261.12 304.8 261.55 306.41 261.41 306.47C261.27 306.53 260.53 305.02 259.83 303.09C259.13 301.16 258.65 299.56 258.82 299.49Z" fill="#455A64"/>
<path d="M222.85 173.14C224.45 159.3 233.33 156.2 233.33 156.2L234.63 237.97L224.43 280.2C224.128 281.459 223.571 282.642 222.794 283.677C222.017 284.711 221.035 285.575 219.91 286.216C218.785 286.856 217.541 287.258 216.255 287.399C214.968 287.539 213.666 287.413 212.43 287.03L191.77 280.75C191.77 280.75 221.26 187 222.85 173.14Z" fill="#0AF886"/>
<path d="M309.07 166C309.07 166 314.18 177.63 314.18 183.75C314.18 189.87 320.3 229.52 314.18 237.92C308.06 246.32 296 246 292.61 245.75C287.94 245.36 266.16 205.08 267.05 204.56L279.3 201.9C279.3 201.9 287.88 202.43 291.97 205.9C296.06 209.37 300.06 205.37 300.06 205.37L308.71 168.2" fill="#0AF886"/>
<path d="M292 156.2C292 156.2 306 161 309.07 166C312.14 171 294.48 236.42 294.48 236.42L237.8 240.48C237.8 240.48 233.33 239.67 232.11 235.61C230.89 231.55 233.33 156.16 233.33 156.16L249.1 150.58C249.1 150.58 255.88 157.58 260.76 159.01C265.64 160.44 292 156.2 292 156.2Z" fill="#0AF886"/>
<path d="M236.88 174.15C236.926 174.37 236.946 174.595 236.94 174.82C236.94 175.34 236.94 175.98 237 176.75C237 178.43 237 180.86 237 183.86C236.812 191.674 236.231 199.474 235.26 207.23C234.69 211.77 234.01 216.09 233.31 219.99C232.61 223.89 231.85 227.38 231.93 230.36C231.913 232.708 232.47 235.025 233.55 237.11C233.989 237.851 234.477 238.563 235.01 239.24C235.01 239.24 234.81 239.11 234.5 238.79C234.056 238.313 233.664 237.79 233.33 237.23C232.137 235.138 231.497 232.778 231.47 230.37C231.33 227.37 232.04 223.77 232.72 219.89C233.4 216.01 234.05 211.68 234.61 207.15C235.75 198.09 236.3 189.83 236.55 183.84C236.65 180.92 236.73 178.52 236.79 176.75C236.79 175.98 236.79 175.34 236.85 174.82C236.824 174.597 236.834 174.37 236.88 174.15Z" fill="#263238"/>
<path d="M292 209.16C291.383 208.326 290.715 207.531 290 206.78C289.211 206.018 288.302 205.389 287.31 204.92C286.073 204.387 284.761 204.05 283.42 203.92C280.99 203.491 278.494 203.635 276.13 204.34C275.435 204.585 274.788 204.95 274.22 205.42C273.85 205.8 273.63 206 273.59 205.98C273.55 205.96 273.71 205.69 274.04 205.25C274.576 204.67 275.231 204.213 275.96 203.91C278.379 203.045 280.982 202.828 283.51 203.28C284.916 203.431 286.288 203.813 287.57 204.41C288.609 204.93 289.544 205.635 290.33 206.49C290.861 207.057 291.309 207.697 291.66 208.39C291.93 208.85 292 209.14 292 209.16Z" fill="#263238"/>
<path d="M277.24 221.65C277.34 221.65 277.79 223.18 278.83 225.58C280.217 228.687 281.818 231.694 283.62 234.58C285.397 237.487 287.379 240.264 289.55 242.89C290.203 243.682 290.919 244.421 291.69 245.1C291.977 245.337 292.285 245.548 292.61 245.73C292.61 245.73 292.15 245.73 291.53 245.3C290.684 244.681 289.906 243.974 289.21 243.19C284.648 238.023 280.996 232.119 278.41 225.73C278.025 224.748 277.691 223.747 277.41 222.73C277.305 222.379 277.248 222.016 277.24 221.65Z" fill="#263238"/>
<path d="M298.84 172.53C298.7 172.44 299.99 170.4 302.12 168.33C304.25 166.26 306.31 165.01 306.4 165.15C306.49 165.29 304.64 166.76 302.57 168.79C300.5 170.82 299 172.65 298.84 172.53Z" fill="#263238"/>
<path d="M231.38 158.33C231.47 158.19 233.76 159.6 235.82 162.15C237.88 164.7 238.82 167.21 238.66 167.27C238.5 167.33 237.33 165.01 235.31 162.56C233.29 160.11 231.27 158.48 231.38 158.33Z" fill="#263238"/>
<path d="M283.91 230.22C283.118 229.233 282.447 228.156 281.91 227.01C279.111 221.604 277.412 215.697 276.91 209.63C276.752 208.378 276.752 207.112 276.91 205.86C277.136 207.091 277.296 208.332 277.39 209.58C277.763 212.558 278.362 215.503 279.18 218.39C280.016 221.271 281.066 224.085 282.32 226.81C282.914 227.916 283.445 229.054 283.91 230.22Z" fill="#263238"/>
<path d="M305 213.25C304.253 212.634 303.552 211.966 302.9 211.25C301.236 209.604 299.458 208.077 297.58 206.68C296.579 205.904 295.5 205.233 294.36 204.68C293.459 204.23 292.426 204.12 291.45 204.37C290.799 204.561 290.225 204.953 289.81 205.49C289.54 205.89 289.48 206.17 289.43 206.16C289.38 206.15 289.37 205.85 289.6 205.37C289.963 204.693 290.571 204.182 291.3 203.94C292.381 203.583 293.557 203.651 294.59 204.13C295.791 204.682 296.922 205.373 297.96 206.19C299.876 207.598 301.642 209.2 303.23 210.97C303.93 211.638 304.527 212.406 305 213.25Z" fill="#263238"/>
<g opacity="0.3">
<path d="M278.55 226.21C275.62 226.95 272.65 225.21 269.63 225.09C266.89 224.95 264.27 226.09 261.63 226.8C255.86 228.349 249.742 227.981 244.2 225.75C243.54 225.522 242.939 225.149 242.44 224.66C242.196 224.355 242.037 223.991 241.98 223.604C241.922 223.218 241.967 222.823 242.11 222.46C247.2 222.41 252.28 222.63 257.38 222.58C258.415 222.654 259.45 222.45 260.38 221.99C260.613 221.863 260.802 221.668 260.92 221.43C260.92 221.43 263.97 221.33 265.06 221.32C267.51 221.32 270.34 221.51 272.79 221.5C273.86 221.5 277.3 221.65 277.22 221.65" fill="black"/>
</g>
<g opacity="0.3">
<path d="M295.33 204.39C299.68 205.175 303.723 207.164 307 210.13C307.379 210.441 307.694 210.821 307.93 211.25C308.051 211.462 308.115 211.701 308.115 211.945C308.115 212.189 308.051 212.428 307.93 212.64C307.742 212.874 307.486 213.044 307.198 213.126C306.91 213.208 306.603 213.199 306.32 213.1C305.756 212.893 305.241 212.569 304.81 212.15L295.09 204" fill="black"/>
</g>
<path d="M298.05 176.35C298.204 177.728 298.234 179.117 298.14 180.5C298.09 183.05 297.91 186.59 297.54 190.5C297.17 194.41 296.68 197.9 296.25 200.42C296.091 201.794 295.803 203.15 295.39 204.47C295.433 203.089 295.57 201.712 295.8 200.35C296.11 197.82 296.53 194.35 296.9 190.44C297.27 186.53 297.51 183.05 297.68 180.51C297.708 179.117 297.832 177.727 298.05 176.35Z" fill="#263238"/>
<path d="M253.89 204.37L247.96 191.59L227.57 190.31L226.85 191.5L242.31 221.28L260.94 221.43L253.89 204.37Z" fill="#455A64"/>
<path d="M253.17 205.56L247.24 192.77L226.85 191.49L241.59 222.49L258.12 222.61C259.104 222.623 260.057 222.266 260.79 221.61L260.94 221.47L253.17 205.56Z" fill="#455A64"/>
<path d="M237.7 197.51C237.847 197.639 238.029 197.721 238.223 197.747C238.417 197.774 238.614 197.743 238.79 197.658C238.966 197.574 239.114 197.439 239.215 197.272C239.315 197.104 239.365 196.911 239.357 196.715C239.349 196.52 239.283 196.331 239.169 196.172C239.055 196.014 238.897 195.892 238.714 195.822C238.531 195.753 238.332 195.738 238.141 195.78C237.951 195.822 237.776 195.92 237.64 196.06C237.545 196.157 237.472 196.273 237.423 196.4C237.375 196.527 237.353 196.662 237.358 196.798C237.364 196.934 237.397 197.067 237.456 197.189C237.515 197.312 237.598 197.421 237.7 197.51Z" fill="#EBEBEB"/>
<path d="M277.06 206.21L269.18 206.67C268.215 205.302 266.954 204.168 265.491 203.353C264.029 202.537 262.401 202.061 260.73 201.96L257.92 201.78L255.86 203.78C255.86 203.78 242.03 203.52 241.42 205.19V205.74V206.06L253.17 207.59C253.17 207.59 243.17 206.93 242.53 206.91C241.89 206.89 239.74 206.57 239.71 207.75C239.71 208.75 240.79 209.56 242.51 209.92C243.21 210.07 251.86 211.37 251.86 211.37L242.29 210.68C241.22 210.6 241.29 212.33 241.87 212.59C242.45 212.85 254.4 217.13 254.4 217.13C253.241 217.803 251.92 218.149 250.58 218.13C248.9 217.91 246.15 215.56 245.49 216.55C244.83 217.54 244.91 218.14 245.25 218.4C247.004 219.527 248.835 220.53 250.73 221.4C252.03 221.84 265.39 221.17 265.39 221.17L279.34 221.65L277.06 206.21Z" fill="#C69481"/>
<path d="M251.15 203.69C252.768 203.638 254.387 203.681 256 203.82C257.621 203.863 259.237 204.006 260.84 204.25C259.222 204.308 257.602 204.265 255.99 204.12C254.369 204.083 252.752 203.94 251.15 203.69Z" fill="#936457"/>
<path d="M252 203.13C252 203.13 251.86 202.86 251.63 202.37C251.4 201.88 251.04 201.09 250.63 200.24C249.77 198.32 248.63 195.78 247.31 192.86H247.39L242.72 192.56L231.45 191.81L228.04 191.56L227.11 191.48H228.04L231.46 191.67L242.73 192.36L247.4 192.67H247.46V192.72L250.72 200.13L251.65 202.28C251.94 202.85 252 203.13 252 203.13Z" fill="#263238"/>
<path d="M330.81 271.42L317.23 288.5C317.23 288.5 330.95 306.74 328.75 310.14L293.75 286.29L313.82 258.81L330.81 271.42Z" fill="#0AF886"/>
<g opacity="0.6">
<path d="M307.78 279.25C307.38 279.106 306.941 279.116 306.548 279.276C306.155 279.437 305.835 279.738 305.65 280.12C305.493 280.516 305.493 280.958 305.652 281.354C305.81 281.75 306.113 282.071 306.5 282.25C306.927 282.399 307.395 282.385 307.813 282.209C308.23 282.034 308.568 281.71 308.76 281.3C308.88 280.87 308.829 280.411 308.619 280.018C308.408 279.625 308.054 279.328 307.63 279.19" fill="white"/>
</g>
<g opacity="0.6">
<path d="M293.76 286.29L295.76 283.52L328.76 307.73C328.993 308.158 329.115 308.638 329.115 309.125C329.115 309.612 328.993 310.092 328.76 310.52L293.76 286.29Z" fill="white"/>
</g>
<path d="M317.91 288.73C317.78 288.89 316.91 288.35 315.68 288.28C314.45 288.21 313.51 288.59 313.41 288.41C313.31 288.23 314.26 287.41 315.73 287.57C317.2 287.73 318.06 288.6 317.91 288.73Z" fill="#263238"/>
<path d="M320.39 292.84C320.31 293.03 319.39 292.78 318.3 293.07C317.21 293.36 316.5 293.98 316.3 293.85C316.1 293.72 316.73 292.7 318.08 292.37C319.43 292.04 320.5 292.68 320.39 292.84Z" fill="#263238"/>
<path d="M319.26 298.62C319.09 298.54 319.47 297.54 320.57 296.94C321.67 296.34 322.71 296.56 322.68 296.75C322.65 296.94 321.81 297.07 320.91 297.58C320.01 298.09 319.44 298.72 319.26 298.62Z" fill="#263238"/>
<path d="M320.57 284.49C320.39 284.59 319.8 283.8 318.81 283.17C317.82 282.54 316.87 282.3 316.89 282.09C316.91 281.88 318.05 281.81 319.2 282.57C320.35 283.33 320.75 284.42 320.57 284.49Z" fill="#263238"/>
<path d="M323.25 281C323.2 281.07 322.46 280.69 321.55 279.73C321.012 279.168 320.549 278.539 320.17 277.86C319.94 277.462 319.74 277.047 319.57 276.62C319.459 276.372 319.385 276.109 319.35 275.84C319.33 275.641 319.376 275.442 319.481 275.272C319.586 275.102 319.744 274.971 319.93 274.9C320.098 274.847 320.275 274.834 320.449 274.862C320.623 274.889 320.787 274.957 320.93 275.06C321.151 275.213 321.344 275.402 321.5 275.62C321.799 275.974 322.063 276.356 322.29 276.76C322.679 277.445 322.955 278.188 323.11 278.96C323.328 279.65 323.328 280.39 323.11 281.08C322.99 281.08 322.99 280.28 322.63 279.08C322.424 278.377 322.124 277.704 321.74 277.08C321.518 276.727 321.267 276.392 320.99 276.08C320.7 275.72 320.39 275.49 320.18 275.59C319.97 275.69 320.08 275.64 320.08 275.81C320.105 276.007 320.159 276.199 320.24 276.38C320.387 276.784 320.561 277.179 320.76 277.56C321.1 278.209 321.495 278.828 321.94 279.41C322.71 280.39 323.32 280.91 323.25 281Z" fill="#263238"/>
<path d="M322.85 281.08C322.891 280.349 323.16 279.65 323.62 279.08C324.055 278.425 324.6 277.85 325.23 277.38C325.605 277.104 326.007 276.866 326.43 276.67C326.687 276.513 326.981 276.424 327.282 276.414C327.583 276.403 327.882 276.471 328.15 276.61C328.3 276.725 328.414 276.88 328.479 277.057C328.545 277.234 328.559 277.425 328.52 277.61C328.456 277.872 328.359 278.124 328.23 278.36C328.009 278.785 327.722 279.174 327.38 279.51C326.824 280.077 326.137 280.5 325.38 280.74C325.043 280.883 324.681 280.957 324.315 280.957C323.949 280.957 323.587 280.883 323.25 280.74C323.925 280.613 324.593 280.449 325.25 280.25C325.906 279.98 326.494 279.566 326.97 279.04C327.25 278.742 327.486 278.405 327.67 278.04C327.88 277.63 327.96 277.24 327.8 277.18C327.635 277.126 327.459 277.108 327.287 277.129C327.114 277.15 326.948 277.208 326.8 277.3C326.413 277.465 326.045 277.669 325.7 277.91C325.062 278.319 324.489 278.821 324 279.4C323.24 280.36 323 281.12 322.85 281.08Z" fill="#263238"/>
<path d="M334.46 265.59L330.18 270.95L314.22 259.11L317.13 254.66L334.46 265.59Z" fill="#C69481"/>
<path d="M219.85 135.07L206.75 129.9C200.435 135.137 192.389 137.822 184.194 137.427C175.999 137.033 168.248 133.587 162.466 127.767C156.683 121.948 153.286 114.175 152.943 105.978C152.601 97.781 155.337 89.7522 160.614 83.4702C165.89 77.1881 173.327 73.1073 181.46 72.03C189.593 70.9527 197.835 72.9568 204.565 77.6484C211.296 82.3399 216.028 89.3795 217.831 97.3832C219.634 105.387 218.378 113.775 214.31 120.9L219.85 135.07Z" fill="#FAFAFA"/>
<path d="M219.85 135.07C219.51 134.15 217.85 129.79 214.46 120.83L214.38 120.63L214.23 120.78L214.45 120.94C217.359 115.923 218.875 110.219 218.84 104.42C218.842 102.683 218.688 100.949 218.38 99.24C218.21 98.36 218.06 97.46 217.86 96.56C217.66 95.66 217.33 94.78 217.05 93.87C214.293 85.9098 208.607 79.2984 201.15 75.38C197.021 73.2004 192.472 71.9318 187.81 71.66C182.884 71.3964 177.96 72.2227 173.39 74.08C168.608 76.0223 164.359 79.0808 161 83C157.539 86.9582 155.074 91.6862 153.81 96.79C152.632 101.68 152.571 106.773 153.63 111.69C154.614 116.344 156.612 120.725 159.48 124.52C164.641 131.327 172.22 135.891 180.65 137.27C184.227 137.788 187.862 137.757 191.43 137.18C197.111 136.192 202.429 133.715 206.84 130H206.7L219.85 135L206.85 129.7H206.78L206.72 129.75C202.311 133.385 197.025 135.799 191.39 136.75C187.864 137.286 184.276 137.286 180.75 136.75C172.45 135.351 164.999 130.832 159.92 124.12C157.105 120.383 155.148 116.07 154.19 111.49C153.155 106.654 153.22 101.647 154.38 96.84C155.622 91.8179 158.046 87.1653 161.45 83.27C164.76 79.4397 168.935 76.4538 173.63 74.56C178.123 72.7272 182.964 71.9078 187.81 72.16C192.396 72.4299 196.872 73.6742 200.94 75.81C208.281 79.6691 213.885 86.1699 216.62 94L217.42 96.65C217.63 97.53 217.77 98.42 217.95 99.29C218.26 100.979 218.421 102.693 218.43 104.41C218.485 110.145 217.022 115.793 214.19 120.78L213.66 121.72L214.41 120.95H214.18L219.85 135.07Z" fill="#263238"/>
<path d="M181.15 100.71H183L187 95V91.3C187 91.3 189.86 91.1 189.56 95.95C189.26 100.8 189.62 99.57 189.62 99.57C189.62 99.57 195.71 99.57 196.22 100.07C196.73 100.57 196.8 106.5 196.89 109.78C196.939 110.572 196.72 111.358 196.268 112.011C195.817 112.664 195.159 113.146 194.4 113.38C194.188 113.439 193.97 113.469 193.75 113.47C192.23 113.47 184.46 112.31 184.46 112.31H181.25L181.15 100.71Z" fill="#0AF886"/>
<path d="M175.83 99.74L177.07 112.42L180.25 112.39L180.15 99.96L175.83 99.74Z" fill="#0AF886"/>
<path d="M469.26 468.87C469.26 469.01 372.21 469.13 252.52 469.13C132.83 469.13 35.75 469 35.75 468.87C35.75 468.74 132.75 468.61 252.52 468.61C372.29 468.61 469.26 468.73 469.26 468.87Z" fill="#263238"/>
<path d="M116.29 392.49C120.451 390.543 125.124 389.976 129.63 390.87C132.06 391.27 134.63 392 136.23 393.82C137.83 395.64 138.23 398.82 136.3 400.4C135.079 401.225 133.607 401.597 132.14 401.45C128.61 401.45 124.7 400.79 121.88 402.91C120.27 404.12 119.2 406.14 117.27 406.73C116.309 406.956 115.3 406.861 114.397 406.46C113.494 406.059 112.747 405.374 112.27 404.51C111.357 402.738 111.156 400.685 111.71 398.77C111.938 397.441 112.47 396.183 113.264 395.094C114.059 394.004 115.094 393.113 116.29 392.49Z" fill="#0AF886"/>
<path d="M107 374.54C109.48 378.08 114.3 376.91 116.54 374.75C118.78 372.59 119.72 369.45 120.54 366.45C122.54 359.62 124.54 352.45 123.03 345.45C122.677 343.34 121.75 341.368 120.35 339.75C119.642 338.954 118.737 338.358 117.726 338.021C116.716 337.684 115.634 337.618 114.59 337.83C112.15 338.48 110.59 340.83 109.59 343.12C106.374 349.815 104.687 357.142 104.65 364.57C104.65 368.02 105.05 371.65 107 374.5" fill="#0AF886"/>
<path d="M100.17 379.63C102.86 376.43 103.38 371.76 102.17 367.75C100.816 363.773 98.3941 360.244 95.17 357.55C91.4951 354.28 87.219 351.756 82.58 350.12C80.7873 349.383 78.8566 349.042 76.92 349.12C75.9495 349.177 75.0075 349.469 74.1748 349.97C73.3421 350.472 72.6438 351.169 72.14 352C70.81 354.52 72.08 357.59 73.46 360.09C75.8832 364.5 78.6483 368.713 81.73 372.69C84.21 375.88 87.05 379.03 90.82 380.48C94.59 381.93 98.53 381.75 100.53 379.13" fill="#0AF886"/>
<path d="M106.82 428C106.947 427.472 107.02 426.933 107.04 426.39C107.16 425.22 107.3 423.75 107.47 422C107.64 420.25 107.95 417.94 108.47 415.55C109.044 412.975 109.823 410.45 110.8 408C111.767 405.535 113.077 403.219 114.69 401.12C116 399.399 117.677 397.991 119.6 397C120.905 396.358 122.301 395.922 123.74 395.71C124.284 395.695 124.824 395.618 125.35 395.48C124.805 395.419 124.255 395.419 123.71 395.48C122.218 395.592 120.758 395.971 119.4 396.6C117.377 397.553 115.603 398.963 114.22 400.72C112.546 402.841 111.198 405.201 110.22 407.72C109.22 410.224 108.44 412.81 107.89 415.45C107.463 417.614 107.165 419.801 107 422C106.86 423.87 106.81 425.38 106.78 426.43C106.735 426.953 106.748 427.48 106.82 428Z" fill="#263238"/>
<path d="M107.12 424.64C107.15 424.391 107.15 424.139 107.12 423.89V421.75C107.12 419.9 107.12 417.21 107.21 413.9C107.38 407.27 107.95 400.13 109.05 390.07C110.05 380.61 111.5 369.6 112.98 362.44C113.29 360.82 113.61 359.35 113.91 358.07C114.21 356.79 114.45 355.67 114.68 354.78C114.91 353.89 115.05 353.25 115.18 352.7C115.253 352.46 115.297 352.211 115.31 351.96C115.2 352.184 115.113 352.419 115.05 352.66C114.89 353.2 114.68 353.88 114.43 354.66C114.18 355.44 113.87 356.66 113.55 357.93C113.23 359.2 112.86 360.67 112.55 362.3C110.712 370.786 109.337 379.365 108.43 388C107.33 398.08 106.83 407.26 106.78 413.91C106.78 417.23 106.78 419.91 106.9 421.78C106.9 422.65 107 423.36 107.03 423.92C107.036 424.162 107.066 424.404 107.12 424.64Z" fill="#263238"/>
<path d="M107.17 406.94C107.22 406.194 107.22 405.446 107.17 404.7C107.09 403.27 106.89 401.19 106.49 398.65C105.989 395.678 105.321 392.737 104.49 389.84C103.527 386.274 102.294 382.788 100.8 379.41C98.2503 373.183 94.5909 367.47 90 362.55C89.1975 361.71 88.346 360.919 87.45 360.18C87.06 359.85 86.71 359.52 86.36 359.26L85.36 358.58C84.7667 358.13 84.138 357.729 83.48 357.38C85.6545 359.077 87.7156 360.914 89.65 362.88C94.0962 367.836 97.664 373.514 100.2 379.67C101.663 383.028 102.903 386.478 103.91 390C104.757 392.869 105.455 395.779 106 398.72C106.46 401.24 106.73 403.29 106.89 404.72C106.919 405.467 107.013 406.209 107.17 406.94Z" fill="#263238"/>
<path d="M90.05 438.17L91.83 462.47H123.05L124.83 438.17H90.05Z" fill="#263238"/>
<path d="M128.55 428.59H87.04V438.17H128.55V428.59Z" fill="#263238"/>
<path d="M87.04 461.54V464.2H88.99H127.86V461.54H87.04Z" fill="#455A64"/>
<path d="M90.9 468.87L88.99 464.2H126.38L124.15 468.87H90.9Z" fill="#455A64"/>
<path d="M124.24 446.11C124.24 446.11 124.24 446.19 124.1 446.33C123.96 446.47 123.82 446.7 123.63 446.95L121.81 449.28L121.73 449.38L121.65 449.28L117.19 443.09H117.44L113.04 449.32L112.91 449.52L112.75 449.34C111.13 447.4 109.36 445.34 107.53 443.13H107.83L107.55 443.49L102.88 449.34L102.73 449.54L102.58 449.34C101 447.09 99.52 445 98.18 443.11H98.44L93 449.29L92.9 449.4L92.83 449.27L91.13 446.42L90.69 445.66C90.6349 445.576 90.5912 445.485 90.56 445.39C90.628 445.464 90.6883 445.544 90.74 445.63C90.87 445.82 91.03 446.06 91.22 446.36L93.01 449.16H92.84L98.17 442.91L98.3 442.75L98.43 442.92L102.87 449.12H102.57L107.22 443.26L107.51 442.9L107.66 442.72L107.81 442.9C109.64 445.08 111.4 447.18 113.01 449.12H112.72C114.33 446.88 115.82 444.79 117.17 442.92L117.3 442.74L117.42 442.92L121.8 449.17H121.64L123.53 446.91L124.04 446.32C124.096 446.241 124.163 446.17 124.24 446.11Z" fill="#E0E0E0"/>
<path d="M125.26 438C125.26 438.1 117.44 438.19 107.79 438.19C98.14 438.19 90.31 438.1 90.31 438C90.31 437.9 98.13 437.8 107.79 437.8C117.45 437.8 125.26 437.9 125.26 438Z" fill="#455A64"/>
<path d="M126.84 464.46C126.84 464.57 118.33 464.65 107.84 464.65C97.35 464.65 88.84 464.57 88.84 464.46C88.84 464.35 97.34 464.26 107.84 464.26C118.34 464.26 126.84 464.35 126.84 464.46Z" fill="#263238"/>
</svg>
