<svg width="168" height="74" viewBox="0 0 168 74" fill="none" xmlns="http://www.w3.org/2000/svg">
<rect width="168" height="74" rx="16" fill="url(#paint0_linear_157_4283)"/>
<rect x="24" y="15" width="44" height="44" rx="8" fill="#0AF886"/>
<path d="M43.3333 38.6386C43.5222 38.9479 43.7463 39.2405 44.0056 39.5104C45.6156 41.1861 48.0696 41.448 49.9434 40.2962C50.2906 40.0828 50.6179 39.8209 50.9162 39.5104L55.2354 35.0152C57.1438 33.0291 57.1438 29.809 55.2354 27.8229C53.3271 25.8368 50.2331 25.8368 48.3247 27.8229L47.3734 28.813" stroke="white" stroke-width="2" stroke-linecap="round"/>
<path d="M44.6271 45.1866L43.6754 46.1771C41.767 48.1632 38.673 48.1632 36.7646 46.1771C34.8563 44.191 34.8563 40.9709 36.7646 38.9848L41.0838 34.4896C42.9922 32.5035 46.0862 32.5035 47.9946 34.4896C48.2538 34.7594 48.4779 35.052 48.6667 35.3611" stroke="white" stroke-width="2" stroke-linecap="round"/>
<path d="M79.84 53V17.96H87.568V53H79.84ZM76.72 23.624V17.96H87.568V23.624H76.72ZM95.8926 53V26.696H103.573V53H95.8926ZM92.3886 32.36V26.696H103.573V32.36H92.3886ZM98.8686 24.104C97.4286 24.104 96.3566 23.736 95.6526 23C94.9806 22.232 94.6446 21.272 94.6446 20.12C94.6446 18.936 94.9806 17.976 95.6526 17.24C96.3566 16.472 97.4286 16.088 98.8686 16.088C100.309 16.088 101.365 16.472 102.037 17.24C102.741 17.976 103.093 18.936 103.093 20.12C103.093 21.272 102.741 22.232 102.037 23C101.365 23.736 100.309 24.104 98.8686 24.104ZM122.628 53.336C119.972 53.336 117.828 53.016 116.196 52.376C114.564 51.704 113.364 50.6 112.596 49.064C111.86 47.496 111.492 45.384 111.492 42.728V19.592H118.644V43.016C118.644 44.264 118.964 45.224 119.604 45.896C120.276 46.536 121.22 46.856 122.436 46.856H126.324V53.336H122.628ZM107.508 32.312V26.696H126.324V32.312H107.508ZM131.824 53V17.96H139.552V53H131.824ZM128.704 23.624V17.96H139.552V23.624H128.704Z" fill="white"/>
<defs>
<linearGradient id="paint0_linear_157_4283" x1="0" y1="37" x2="168" y2="37" gradientUnits="userSpaceOnUse">
<stop stop-color="#0E2254"/>
<stop offset="1" stop-color="#30416D"/>
</linearGradient>
</defs>
</svg>
