<svg width="128" height="56" viewBox="0 0 128 56" fill="none" xmlns="http://www.w3.org/2000/svg">
<rect y="6" width="44" height="44" rx="8" fill="#0AF886"/>
<path d="M19.3334 29.6388C19.5222 29.9481 19.7463 30.2407 20.0056 30.5106C21.6156 32.1862 24.0696 32.4482 25.9435 31.2964C26.2907 31.083 26.618 30.8211 26.9163 30.5106L31.2355 26.0154C33.1438 24.0293 33.1438 20.8092 31.2355 18.8231C29.3271 16.837 26.2331 16.837 24.3248 18.8231L23.3734 19.8132" stroke="white" stroke-width="2" stroke-linecap="round"/>
<path d="M20.6271 36.1866L19.6754 37.1771C17.7671 39.1632 14.673 39.1632 12.7646 37.1771C10.8563 35.191 10.8563 31.9709 12.7646 29.9848L17.0839 25.4896C18.9922 23.5035 22.0863 23.5035 23.9946 25.4896C24.2539 25.7594 24.4779 26.052 24.6667 26.3611" stroke="white" stroke-width="2" stroke-linecap="round"/>
<path d="M63.84 44V8.96H71.568V44H63.84ZM60.72 14.624V8.96H71.568V14.624H60.72ZM79.8926 44V17.696H87.5726V44H79.8926ZM76.3886 23.36V17.696H87.5726V23.36H76.3886ZM82.8686 15.104C81.4286 15.104 80.3566 14.736 79.6526 14C78.9806 13.232 78.6446 12.272 78.6446 11.12C78.6446 9.936 78.9806 8.976 79.6526 8.24C80.3566 7.472 81.4286 7.088 82.8686 7.088C84.3086 7.088 85.3646 7.472 86.0366 8.24C86.7406 8.976 87.0926 9.936 87.0926 11.12C87.0926 12.272 86.7406 13.232 86.0366 14C85.3646 14.736 84.3086 15.104 82.8686 15.104ZM106.628 44.336C103.972 44.336 101.828 44.016 100.196 43.376C98.5639 42.704 97.3639 41.6 96.5959 40.064C95.8599 38.496 95.4919 36.384 95.4919 33.728V10.592H102.644V34.016C102.644 35.264 102.964 36.224 103.604 36.896C104.276 37.536 105.22 37.856 106.436 37.856H110.324V44.336H106.628ZM91.5079 23.312V17.696H110.324V23.312H91.5079ZM115.824 44V8.96H123.552V44H115.824ZM112.704 14.624V8.96H123.552V14.624H112.704Z" fill="white"/>
</svg>
